<?xml version="1.0" standalone="no"?>
<!DOCTYPE svg PUBLIC "-//W3C//DTD SVG 1.1//EN" "http://www.w3.org/Graphics/SVG/1.1/DTD/svg11.dtd" >
<svg xmlns="http://www.w3.org/2000/svg">
<metadata></metadata>
<defs>
<font id="bang_whack_powregular" horiz-adv-x="1107" >
<font-face units-per-em="2048" ascent="1536" descent="-512" />
<missing-glyph horiz-adv-x="526" />
<glyph horiz-adv-x="0" />
<glyph horiz-adv-x="682" />
<glyph unicode=" "  horiz-adv-x="526" />
<glyph unicode="&#x09;" horiz-adv-x="526" />
<glyph unicode="&#xa0;" horiz-adv-x="526" />
<glyph unicode="!" horiz-adv-x="468" d="M55 68q0 25 18.5 52t59.5 56q23 16 44.5 23.5t41.5 7.5q41 0 65.5 -28.5t24.5 -65.5q0 -41 -34.5 -77t-112.5 -36q-53 0 -80 19.5t-27 48.5zM92 1430l234 -15q0 -4 -3.5 -55t-7.5 -131t-10 -180.5t-13 -206t-13.5 -205.5t-10.5 -178t-7 -126t-3 -50l-129 10v8 q0 20 -1 79.5t-4 141.5t-6 181.5t-6 200t-6.5 194.5t-6.5 166.5t-5 117.5t-2 48z" />
<glyph unicode="&#x22;" horiz-adv-x="595" d="M45 1413l213 14q0 -4 -1 -29.5t-4 -65.5t-6 -90t-7 -101q-8 -123 -19 -275l-108 -10q-2 0 -7.5 39t-12.5 99.5t-16 132t-16.5 133t-11.5 105.5t-4 48zM330 1427l213 -14q0 -6 -4 -49t-11.5 -104.5t-16.5 -133t-16.5 -132t-12.5 -99.5t-7 -39l-108 10q-10 152 -19 275 q-4 51 -7 101t-6 90t-4 65.5t-1 29.5z" />
<glyph unicode="#" horiz-adv-x="790" d="M25 604v27.5t2 34.5q2 18 4 39q12 0 26 2q12 2 30.5 3t41.5 5l29 100h-68h-41t-19 3t-5 11v27.5t2 34.5q2 18 4 39q20 0 47 4q23 2 53.5 5t65.5 7q29 92 48 154.5t21 62.5t29 -8t57.5 -17.5t56 -18.5t25.5 -13t-15.5 -43t-39.5 -98l78 6q25 80 41 134t18 54t27.5 -7 t56.5 -16.5t57.5 -19.5t26.5 -14t-11 -35t-32 -78q18 2 34.5 2t26.5 2q12 0 25 2q0 -2 2 -20.5t4 -43t4 -51t2 -42.5t-11 -20.5t-50 -4.5h-109l-24 -59q39 4 71.5 7t57.5 5q29 2 53 4q0 -2 2 -20.5t4 -43t4 -51t2 -43.5q0 -16 -19.5 -21t-72.5 -5q-31 0 -73 1t-99 1 q-14 -33 -24.5 -58.5t-18.5 -44.5q-8 -23 -16 -41q-4 0 -20.5 6.5t-35.5 16.5l-49 25q4 12 8 26q4 12 8.5 30.5t12.5 41.5h-115q-14 -33 -24.5 -58.5t-18.5 -44.5q-8 -23 -16 -38q-4 0 -20.5 6t-34.5 16q-23 8 -48 23q4 12 9 26q4 12 8 29.5t12 40.5h-58t-9 14zM283 729 q25 4 50 6t52 4q6 18 12 37t11 37q-23 0 -45.5 1t-45.5 1q-8 -23 -16 -43t-18 -43z" />
<glyph unicode="$" horiz-adv-x="972" d="M10 872q2 61 32 119t80 105t119.5 78.5t153.5 42.5v204l129 11l13 -211q106 -6 177.5 -30t114.5 -50.5t61 -48.5l19 -21l-21 -29q-20 -30 -46.5 -65t-48 -63.5t-21.5 -26.5l-16 17q-15 16 -43.5 35t-69.5 39.5t-94 31.5l14 -222q18 2 38 3.5t40 1.5q49 0 101.5 -11.5 t93.5 -41t67.5 -82t26.5 -136.5q0 -70 -30 -121t-77 -88t-106.5 -59.5t-118.5 -34.5q4 -66 7 -121t7 -88l-233 -14q-2 37 -2 92v123q-88 10 -152.5 30.5t-107.5 43.5q-51 25 -86 55l47 115q45 -23 96 -43q43 -16 96.5 -34t108.5 -24l6 281q-61 -6 -119 -6q-55 0 -102 9 t-81 35.5t-53.5 74t-19.5 124.5zM182 838q0 -29 36 -48.5t126 -19.5h20.5t22.5 2q2 59 3 118t1 116q-41 -10 -78 -30t-66.5 -43.5t-47 -48t-17.5 -46.5zM571 641q4 -70 8.5 -136.5t8.5 -129.5q57 20 91 52t34 75q0 74 -40 103.5t-102 35.5z" />
<glyph unicode="%" horiz-adv-x="1302" d="M10 1057q0 88 30 143t75 88t98 45.5t98 12.5q61 0 110.5 -21.5t83.5 -59.5t51 -89.5t17 -108.5q0 -53 -18 -101t-53 -86t-89.5 -60.5t-123.5 -22.5q-123 0 -201 65.5t-78 194.5zM111 1065q0 -59 44 -106.5t134 -47.5q72 0 109.5 52.5t37.5 113.5t-34.5 106.5t-106.5 45.5 q-47 0 -81 -14.5t-57.5 -38t-34.5 -53t-11 -58.5zM139 154q2 0 37 54t92.5 143t130 202t148.5 231.5t147.5 232t128 204t91 144.5t34.5 56q4 0 21.5 -11t38.5 -26q23 -16 53 -34q-213 -379 -379 -676q-72 -127 -139.5 -248t-120.5 -216t-85 -154l-32 -58l-27 24 q-26 25 -58 53.5t-57.5 53.5t-23.5 25zM684 381q0 88 29.5 143.5t75 88t98.5 45t98 12.5q61 0 110.5 -21.5t83 -59.5t51 -89t17.5 -109q0 -53 -18.5 -101t-53 -86t-89 -60.5t-123.5 -22.5q-123 0 -201 65.5t-78 194.5zM784 389q0 -59 44.5 -106t134.5 -47q72 0 109.5 52 t37.5 113t-35 106.5t-106 45.5q-47 0 -81 -14.5t-57.5 -38t-35 -53t-11.5 -58.5z" />
<glyph unicode="&#x26;" horiz-adv-x="829" d="M8 952q0 88 31 147.5t82 95.5t116.5 53.5t135.5 21.5q-4 25 -8.5 52.5t-7.5 50l-5 37.5t-2 17l213 -14l-3 -15q-3 -14 -9 -34.5t-13.5 -46t-13.5 -49.5q55 -4 102.5 -11.5t82 -14.5t55.5 -13l20 -6q0 -4 -6 -17.5t-12 -27.5l-18 -37q-27 4 -60 8q-29 4 -65.5 7t-77.5 3 q-57 0 -117.5 -8t-111 -31.5t-82 -64.5t-31.5 -105q0 -59 28.5 -95t73.5 -56.5t98.5 -26.5t100.5 -6q51 0 86 4t37 4t4 -20.5t5 -46t5 -46t4 -20.5t-26.5 -4t-71.5 -13.5t-94.5 -25.5t-94.5 -42t-72.5 -60.5t-29.5 -79.5q0 -72 47 -97.5t107 -25.5q53 0 112.5 13t108.5 29.5 t80.5 30t29.5 13.5v-2q0 -4 8.5 -18.5t18.5 -30.5q10 -20 27 -43q-39 -16 -84 -33q-39 -14 -89.5 -29.5t-105.5 -25.5q8 -25 17.5 -56.5t16.5 -59.5t12 -47l5 -18l-213 -14l2 18q2 19 6.5 46.5t9.5 58.5t9 55q-53 0 -101.5 10.5t-86 38t-60 72.5t-22.5 117q0 68 28.5 114 t68.5 76.5t84 47t75 22.5q-14 -2 -31 -3t-35 -1q-45 0 -96 10t-95 40t-73 84t-29 144z" />
<glyph unicode="'" horiz-adv-x="294" d="M43 1427l213 -14q0 -6 -4 -49t-11.5 -104.5t-16.5 -133t-16 -132t-14 -99.5l-6 -39l-108 10q-10 152 -19 275q-4 51 -7 101t-6 90t-4 65.5t-1 29.5z" />
<glyph unicode="(" horiz-adv-x="507" d="M33 662q0 141 23.5 280t67.5 265t107.5 233.5t145.5 185.5l76 -153q-66 -66 -119 -158t-90 -199.5t-57.5 -226.5t-20.5 -238q0 -102 15.5 -202.5t48 -192.5t84 -173t120.5 -144l-63 -134q-88 68 -151.5 163t-105.5 207t-61.5 236t-19.5 251z" />
<glyph unicode=")" horiz-adv-x="622" d="M51 -55q94 39 164 115.5t116 177t68.5 218t22.5 238.5q0 123 -22.5 243t-65.5 223.5t-107.5 183t-148.5 122.5l112 179q92 -61 163 -158.5t118 -216.5t70.5 -254t23.5 -275q0 -150 -27.5 -296t-83 -273t-137 -227.5t-192.5 -157.5z" />
<glyph unicode="*" horiz-adv-x="1206" d="M12 727q49 2 107 6q49 4 115.5 8t142.5 9l-268 284q-4 0 24.5 23.5t65.5 51.5t69 51l33 24q20 -27 47 -60q23 -29 53.5 -65.5t67.5 -81.5l-16 280l227 -2v-25q0 -26 -1 -69t-2 -101.5t-1 -125.5q41 49 76.5 93t62.5 76t35 41l22 30q4 0 21.5 -11.5t38.5 -25.5 q23 -16 53 -35q-31 -43 -67 -96q-33 -45 -75 -104.5t-89 -125.5q76 4 141.5 8t114.5 9q57 4 106 8l4 -90q2 -35 4 -62.5t2 -25.5h-18q-35 0 -131 -1t-219 -4q55 -70 105 -131t89 -108q45 -55 82 -103l-53 -57q-20 -23 -36.5 -41t-16.5 -16q-35 37 -76 82q-35 39 -83 88 t-101 108q-2 -63 -3 -117.5t-2 -94.5t-3 -62l-1 -21h-18q-16 0 -35.5 -1t-40.5 -1q-23 -2 -47 -2q-4 33 -6 76q-4 37 -5 88t-5 113q-39 -55 -72 -101.5t-57.5 -81t-37.5 -53.5l-13 -20l-27 24q-27 25 -58.5 53.5t-57 53t-23.5 24.5l20 24q21 24 55.5 63.5t79.5 93t95 114.5 q-127 -4 -227.5 -5t-135.5 -1q-8 0 -14 12.5t-9.5 31t-5.5 40t-2 37.5z" />
<glyph unicode="+" horiz-adv-x="901" d="M12 829q37 2 80 7q37 4 87 8t108 10q-4 66 -9.5 136.5t-9.5 144.5l228 -2q0 -2 -1 -78t-6 -183q66 6 128.5 11.5t109.5 9.5q55 6 102 10l5 -90q2 -35 4 -62.5t2 -25.5h-17h-52t-78 -1t-97 -2t-109 -3q-2 -72 -4 -138.5t-3 -117.5t-3 -82l-2 -31h-18q-16 0 -36 -1t-40 -1 q-23 -2 -47 -2q-6 43 -12 100q-4 47 -11.5 116t-13.5 153q-92 -4 -163 -5t-95 -1q-6 0 -11 13t-8.5 32.5t-5.5 40t-2 34.5z" />
<glyph unicode="," horiz-adv-x="364" d="M55 68q0 25 18.5 52t59.5 56q45 31 86 31q47 0 70.5 -35t23.5 -70q-18 -80 -41.5 -146.5t-68.5 -133.5l-56 4q14 35 19.5 73t5.5 72v29h-2q-115 0 -115 68z" />
<glyph unicode="-" horiz-adv-x="643" d="M25 727v27.5t2 33.5q2 18 4 39l274 33q51 6 101.5 12.5t89.5 10.5t51 5l37 5q0 -2 2 -20.5t4 -43t4 -51t2 -43.5q0 -12 -5 -17t-21.5 -6t-47 0t-80.5 1h-227q-86 0 -138 2t-52 12z" />
<glyph unicode="." horiz-adv-x="364" d="M55 68q0 25 18.5 52t59.5 56q23 16 44.5 23.5t41.5 7.5q41 0 65.5 -28.5t24.5 -65.5q0 -41 -34.5 -77t-112.5 -36q-53 0 -80 19.5t-27 48.5z" />
<glyph unicode="/" horiz-adv-x="956" d="M0 154q2 0 37 54t92 143t130 202t148.5 231.5t147.5 232t128 204t91 144.5t35 56q4 0 21.5 -11t37.5 -26q23 -16 54 -34q-213 -379 -379 -676q-72 -127 -139.5 -248t-121 -216t-84.5 -154l-32 -58l-26 24q-27 25 -59 53.5t-57.5 53.5t-23.5 25z" />
<glyph unicode="0" horiz-adv-x="1054" d="M0 647v51.5t4 53.5q20 172 69.5 298t118 207.5t150.5 120.5t166 39q94 0 184 -47t160 -137t112 -221t42 -299q0 -178 -45.5 -312.5t-118 -222.5t-164.5 -132t-189 -44q-92 0 -180 41t-156.5 122t-110.5 201.5t-42 280.5zM141 627q0 -111 28 -197t73 -146.5t103 -91 t120 -30.5q61 0 121.5 33.5t109.5 105.5t80 182.5t31 264.5q0 123 -27.5 214t-71.5 151.5t-101.5 90t-119.5 29.5q-63 0 -125.5 -33t-111.5 -98.5t-79 -162.5t-30 -226v-24.5t2 -24.5q0 -10 -1 -18.5t-1 -18.5z" />
<glyph unicode="1" horiz-adv-x="589" d="M8 1303l137 116l150 11q4 -66 10 -165.5t13.5 -217t14.5 -246.5t14 -250t13.5 -228.5t12.5 -181.5l180 -22q0 -20 2 -39q0 -16 1 -33.5t1 -28.5q0 -10 -52 -12t-134 -2h-219q-74 0 -108 1t-34 5q0 8 2 36t3 58.5t3 54t2 25.5q18 -2 41 -4q20 -2 46 -5t57 -7l-17 1079 l-98 -22z" />
<glyph unicode="2" horiz-adv-x="892" d="M23 -6v53q0 23 1 46.5t1 39.5v17l47 52t117.5 136t154.5 189.5t154.5 213t119 207t48.5 168.5q0 35 -14.5 59.5t-36 41t-46 23.5t-45.5 7q-61 0 -122.5 -39t-108.5 -86q-55 -53 -107 -123q-37 23 -67 41q-27 16 -48.5 28.5t-23.5 10.5q4 4 25.5 32t55.5 67t80 82 t100 79.5t114.5 61t124.5 24.5q57 0 114.5 -23.5t112.5 -82.5q86 -88 86 -195q0 -98 -65.5 -217t-180.5 -272q-72 -96 -143.5 -184.5t-128.5 -156t-93 -108.5l-36 -41l598 80v-229z" />
<glyph unicode="3" horiz-adv-x="925" d="M6 1272q72 37 150 65q66 25 147.5 45.5t159.5 20.5q55 0 105 -14.5t90 -49t63.5 -92t23.5 -145.5q0 -86 -30.5 -146.5t-74.5 -98.5t-92 -59.5t-81 -29.5q16 2 33.5 4t40.5 2q49 0 103 -13t101.5 -52t78 -110t30.5 -183q0 -123 -40 -202t-105.5 -123t-147.5 -61.5 t-164 -17.5q-74 0 -143.5 9.5t-121.5 20.5t-84 20l-32 10q0 4 6.5 21.5t14.5 37.5l20 49q29 -6 66 -12q29 -4 68.5 -7t84.5 -3q61 0 127 10t120.5 40t88 81t33.5 133q0 76 -31.5 122t-80 71.5t-105.5 33.5t-109 8q-55 0 -93 -5t-40 -5t-4 26.5t-5 58.5t-5 58.5t-4 26.5 t28.5 5t78 16.5t101.5 32t101 52t79 75.5t32 104q0 45 -14.5 75.5t-37 49t-52 27t-62.5 8.5q-59 0 -122.5 -17.5t-117 -39t-87.5 -39t-32 -15.5v2q0 4 -9 23.5t-19 42.5q-13 24 -29 53z" />
<glyph unicode="4" horiz-adv-x="1034" d="M16 461v27.5t2 33.5q2 18 5 39l602 858l149 11l47 -814q35 2 63.5 4.5t51.5 4.5q25 2 45 2q0 -2 1 -28t3 -56.5t4 -57t2 -28.5h-20h-48t-92 -4l21 -312l106 -22q0 -20 3 -39q0 -16 1 -33.5t1 -28.5q0 -10 -44.5 -12t-115.5 -2h-193q-66 0 -93.5 1t-27.5 5q0 8 2.5 36 t3.5 58.5t3 54t2 25.5q18 -2 41 -4q20 -2 45.5 -5t56.5 -7l-4 276q-102 0 -212 1t-200 1t-149 2l-60 1q-2 0 -2 12zM168 565l469 39v545z" />
<glyph unicode="5" horiz-adv-x="886" d="M16 72q0 4 6.5 21.5t14.5 37.5l20 49q29 -6 66 -12q29 -4 68.5 -7t84.5 -3q61 0 127 10t120.5 40t88 81t33.5 133q0 86 -42 139t-103.5 81t-133 37t-128.5 9q-86 0 -110 -4t-13 -8q-2 0 -8.5 69.5t-14.5 173t-17.5 220.5t-17.5 213q53 6 113 12q51 4 114.5 10t131.5 15 l356 36l4 -90q2 -35 4 -62.5t2 -25.5h-10q-20 0 -74.5 -1t-126 -3t-151.5 -4t-150 -4l-30 -371h32q80 0 177.5 -12t183.5 -55t143.5 -124t57.5 -216q0 -133 -45.5 -216t-116 -130.5t-157.5 -64.5t-173 -17q-68 0 -127 7t-103 15t-70 15z" />
<glyph unicode="6" horiz-adv-x="1138" d="M4 483q0 74 26.5 153t84.5 163l430 659l164 -104l-271 -357q31 4 59.5 6.5t57.5 2.5q123 0 219 -38t164 -103.5t103.5 -152.5t35.5 -186q0 -115 -43 -210t-116.5 -165.5t-174 -109.5t-215.5 -39q-121 0 -217 46t-164.5 117t-105.5 156t-37 162zM166 504q0 -86 47.5 -167 t153.5 -140q63 -35 135 -35q74 0 141.5 37t118.5 95t81.5 132t30.5 145q0 55 -23.5 107.5t-67.5 92.5t-107.5 64.5t-143.5 24.5q-59 0 -123.5 -22.5t-117.5 -66.5t-89 -111.5t-36 -155.5z" />
<glyph unicode="7" horiz-adv-x="821" d="M20 1212l5 107q2 47 2 108l772 -75l-25 -58l-64 -152t-90.5 -216t-103.5 -248t-104.5 -249t-91 -217t-63.5 -154l-24 -60l-112 72l432 1132l-266 4q-117 2 -267 6z" />
<glyph unicode="8" horiz-adv-x="1118" d="M18 377q0 104 56.5 206.5t165.5 170.5q-96 49 -142.5 129t-46.5 168q0 72 31 141.5t92.5 123.5t151.5 88t211 34q106 -2 189 -36t141.5 -89.5t89 -125t30.5 -140.5q0 -78 -37 -148t-114 -121q104 -59 156 -153.5t52 -198.5q0 -82 -32.5 -159t-99 -136t-166 -95 t-234.5 -36q-129 0 -222 31.5t-153.5 84t-89.5 120t-29 141.5zM172 395q0 -47 21.5 -90t63.5 -76.5t106.5 -53t150.5 -19.5q76 0 133.5 25.5t96 67.5t58 94t19.5 106q0 45 -15 89t-46 76.5t-78 53t-111 20.5q-98 0 -172.5 -27.5t-125 -70.5t-76 -95.5t-25.5 -99.5zM215 1067 q0 -41 15.5 -79t45 -70.5t73.5 -55t104 -28.5q25 4 51 7t55 3h22.5t22.5 -2q96 23 142.5 81t46.5 124q0 43 -19.5 85t-58.5 74.5t-97.5 53t-134.5 20.5q-68 0 -118 -18.5t-83.5 -48t-50 -67.5t-16.5 -79z" />
<glyph unicode="9" horiz-adv-x="1124" d="M4 915q0 115 43 211.5t117 167t174 109.5t215 39q119 0 216 -46t166 -117t105.5 -156t36.5 -162q0 -74 -26.5 -153t-83.5 -163l-430 -659l-164 104l270 356q-31 -4 -60.5 -7t-58.5 -3q-121 0 -217 38t-163.5 103.5t-103.5 152.5t-36 185zM145 893q0 -55 24 -107.5 t68 -93.5t107.5 -65.5t142.5 -24.5q57 0 123 22.5t119 66.5t89 110.5t36 156.5q0 86 -47.5 168.5t-153.5 141.5q-35 18 -68.5 26.5t-66.5 8.5q-74 0 -141.5 -37t-118.5 -95.5t-82 -132t-31 -145.5z" />
<glyph unicode=":" horiz-adv-x="364" d="M55 66q0 20 14.5 46.5t47.5 51.5l16 12l12 8q20 20 44 21.5t28 1.5q27 0 44.5 -9.5t27.5 -22.5t14 -27.5t6 -26.5q0 -10 -1 -18.5t-3 -18.5l-12 -27l-21 -24l-30 -19q-29 -14 -72 -14q-63 0 -89 18.5t-26 47.5zM55 782q0 25 18.5 52.5t59.5 56.5q23 16 44.5 23.5 t41.5 7.5q41 0 65.5 -29t24.5 -66q0 -41 -34.5 -76.5t-112.5 -35.5q-53 0 -80 19.5t-27 47.5z" />
<glyph unicode=";" horiz-adv-x="389" d="M55 68q0 25 18.5 52t59.5 56q45 31 86 31q47 0 70.5 -35t23.5 -70q-18 -80 -41.5 -146.5t-68.5 -133.5l-56 4q14 35 19.5 73t5.5 72v29h-2q-115 0 -115 68zM55 782q0 25 18.5 52.5t59.5 56.5q23 16 44.5 23.5t41.5 7.5q41 0 65.5 -29t24.5 -66q0 -41 -34.5 -76.5 t-112.5 -35.5q-53 0 -80 19.5t-27 47.5z" />
<glyph unicode="&#x3c;" horiz-adv-x="702" d="M16 676l572 291q14 -37 26 -64q4 -12 10.5 -22.5t10.5 -20.5q6 -10 8 -20l-36 -22q-36 -21 -89 -53t-115.5 -69t-116 -68.5t-88.5 -53.5l-36 -21l36 -19q35 -18 90.5 -46.5t120 -61.5t120 -61.5t91.5 -48.5l37 -19q0 -2 -15 -41t-34 -86q-22 -55 -47 -125 q-152 98 -268 176q-51 33 -98.5 65.5t-85.5 57.5q-45 29 -84 55q-2 0 -2 42t-3 96z" />
<glyph unicode="=" horiz-adv-x="790" d="M25 604v27.5t2 34.5q2 18 4 39q190 18 342 32q63 6 125.5 12.5t111.5 10.5t81 7t36 3q0 -2 2 -20.5t4 -43t4 -51t2 -43.5q0 -16 -11 -20t-46 -4q-23 0 -54.5 1t-78.5 1h-169t-170 1t-131 1h-52q-2 0 -2 12zM25 829v27.5t2 34.5q2 18 4 39q190 18 342 33q63 6 125.5 12 t111.5 10t81 7t36 3q0 -2 2 -20.5t4 -43t4 -51t2 -42.5t-11 -20.5t-46 -4.5q-23 0 -54.5 1t-78.5 1h-169t-170 1t-131 1h-52q-2 0 -2 12z" />
<glyph unicode="&#x3e;" horiz-adv-x="702" d="M16 297l37 19q37 20 92.5 48.5t120 61.5t119.5 61.5t91 46.5l36 19l-36 21q-36 22 -89 53.5t-115.5 68.5t-116 69t-89.5 53l-35 22l8 20q6 18 18 43q12 27 29 64l571 -291l-4 -139q-2 -27 -2 -51.5v-43.5q0 -23 -2 -43l-23 -15q-24 -15 -62 -41t-86 -57.5t-97 -64.5 q-116 -78 -268 -176q-27 70 -50 125q-18 47 -32.5 86t-14.5 41z" />
<glyph unicode="?" horiz-adv-x="804" d="M16 1337q59 20 127 37q57 14 128 25.5t145 11.5q68 0 129 -13.5t108 -46t75 -88t28 -141.5q0 -66 -20.5 -120t-53.5 -99t-76 -78.5t-86 -60.5q-102 -61 -233 -94l45 -336l-164 -47l-21 540q2 0 40 1t92.5 9.5t117 25t115.5 47t89 78.5t36 118q0 47 -13.5 80t-37 52 t-54 27.5t-65.5 8.5q-66 0 -136.5 -20.5t-129.5 -45.5q-70 -29 -140 -63zM141 82q0 27 27 53.5t78 46.5q35 14 65 15q47 0 69.5 -29t22.5 -64q0 -39 -29.5 -72.5t-88.5 -33.5q-72 0 -108 27.5t-36 56.5z" />
<glyph unicode="@" horiz-adv-x="1263" d="M8 489q0 113 38 223.5t115 197.5t191.5 141.5t265.5 54.5q139 0 244 -49t173.5 -130t103.5 -187.5t35 -219.5q0 -68 -19.5 -158t-54.5 -170.5t-84 -136t-109 -55.5q-59 0 -111.5 62.5t-72.5 179.5q-84 -68 -215 -68q-141 0 -227 75t-86 220q0 100 32.5 163.5t83.5 100.5 t110.5 50.5t113.5 13.5q94 0 159 -41q-2 18 -3 36.5t-1 36.5l135 -2q-2 -2 -4 -22.5t-4 -54t-3 -78.5t-1 -94q0 -78 4 -162t13.5 -153.5t25.5 -115t43 -45.5t51.5 37t45 91.5t32.5 116t12 112.5q0 102 -30.5 199.5t-87 174t-135 122.5t-175.5 46q-115 0 -205 -48 t-153.5 -122.5t-96 -166t-32.5 -177.5q0 -78 26.5 -149.5t82 -126.5t140.5 -89t204 -34q16 0 34.5 1t36.5 3l15 -137q-68 -12 -129 -12q-133 0 -231.5 46t-164 122.5t-98.5 175t-33 202.5zM342 496q0 -41 10 -80t30.5 -71t52.5 -53.5t73 -25.5q45 0 81 20.5t59.5 52.5 t35.5 73t12 84q0 90 -48 147t-148 57q-39 0 -69 -17t-49.5 -46t-29.5 -65.5t-10 -75.5z" />
<glyph unicode="A" horiz-adv-x="1142" d="M78 33l16 57q15 57 38.5 151.5t54 216.5t63.5 251q-4 23 -8 58.5t-4 43.5q0 4 7 3t31 3q29 115 54.5 221.5t46 187.5t31.5 130l12 49q-2 0 27.5 -1t69.5 -2t80 -3t60 -2q16 4 17 4h2q-2 -2 12 -45t40 -115t59.5 -165t70.5 -193q25 2 45.5 4t36.5 4q18 2 31 4l4 -90 q2 -35 4 -62.5t2 -25.5h-16q-8 0 -19.5 -1t-25.5 -1q43 -117 82.5 -227.5t72.5 -196.5q37 -100 72 -189q-59 -33 -105 -55q-41 -20 -72.5 -36.5t-31.5 -14.5l-20 62q-19 63 -49.5 164.5t-69.5 228.5t-80 258q-74 -4 -149.5 -6.5t-143.5 -4.5l-250 -702q-25 10 -47 18 q-18 6 -33.5 12.5t-17.5 6.5zM477 840l193 20l-86 279z" />
<glyph unicode="B" horiz-adv-x="1024" d="M8 1384q0 43 2 43q2 -2 19 -2h34.5t40.5 2q23 2 48 5l6 -109q33 14 78 31.5t96 33t106.5 25.5t108.5 10q55 0 106.5 -14t91 -49t63 -92.5t23.5 -145.5q0 -68 -19 -119t-50 -87.5t-68 -62.5t-71 -40q20 4 41.5 6t44.5 2q51 0 102 -15t92 -56t66.5 -113t25.5 -184 q0 -125 -36.5 -206t-97 -127t-137.5 -64.5t-157 -18.5q-92 0 -178 16.5t-143 32.5l6 -92h-109q-20 0 -38.5 -1t-34.5 -1h-33l-1 49t-3 133t-5 193.5t-5.5 229.5t-5.5 240.5t-5 227t-3 190.5t-1 129zM168 1192l24 -369q47 8 128 28.5t159 56.5t135.5 90.5t57.5 127.5v21 q-10 74 -58.5 102.5t-113.5 28.5q-41 0 -87 -8t-90 -21.5t-84 -29t-71 -27.5zM205 655l33 -448q41 -10 98 -18.5t121 -8.5q59 0 118.5 11.5t106.5 42t78 84t33 135.5q0 74 -25 121t-67 74.5t-97 37.5t-115 10q-86 0 -164.5 -15t-119.5 -26z" />
<glyph unicode="C" horiz-adv-x="1150" d="M4 717q0 147 33 274t100.5 220.5t172 147.5t249.5 54q70 0 140.5 -12t137 -41t126 -77t106.5 -122l-125 -98q-63 86 -150 128t-180 42q-78 0 -152.5 -32t-132 -94.5t-92 -156.5t-34.5 -219q0 -172 42 -282.5t108.5 -173t146.5 -86t155 -23.5q131 0 215 64.5t129 172.5 l119 -90q-82 -160 -221 -235.5t-293 -75.5q-113 0 -220.5 45t-192.5 135t-136 223.5t-51 311.5z" />
<glyph unicode="D" horiz-adv-x="1019" d="M8 1384q0 43 2 43q2 -2 19 -2h34.5t40.5 2q23 2 48 5l2 -48q86 29 186 29q70 0 144.5 -8t145 -33.5t133 -72t110 -123t75 -188t27.5 -267.5q0 -170 -51.5 -303t-134 -225.5t-188 -141.5t-216.5 -49q-72 0 -135 18l2 -26h-109q-20 0 -38.5 -1t-34.5 -1h-33l-1 49t-3 133 t-5 193.5t-5.5 229.5t-5.5 240.5t-5 227t-3 190.5t-1 129zM170 1159l66 -952q47 -23 98 -32t102 -9q100 0 175 50t124 133t72.5 187.5t23.5 213.5q0 135 -36.5 227t-97 148.5t-137.5 82t-157 25.5q-133 0 -233 -74z" />
<glyph unicode="E" horiz-adv-x="868" d="M18 1360q207 18 371 33q70 6 137.5 12t120.5 10t86 7t35 3q0 -2 1 -17t2 -36.5t2 -46.5t1 -45q0 -18 1 -27.5t-5 -12.5t-25.5 -3h-62.5h-110.5t-133 1t-140.5 2t-128 3l27 -405q57 8 137 17t152.5 17.5t125 14.5t54.5 6q0 -2 2 -20.5t4 -43t4 -51t2 -43.5 q0 -16 -11.5 -20t-43.5 -4q-20 0 -51 1t-74 1h-293l37 -514q8 2 36.5 3t71.5 2t94.5 2t104.5 3q123 2 274 6q-2 0 -2 -34t-2 -75q-2 -47 -2 -106h-776v20q0 33 -1 107t-2 174t-3 217t-4 234.5t-4 226t-4.5 193.5t-3.5 135.5t-1 52.5z" />
<glyph unicode="F" horiz-adv-x="811" d="M18 1360q207 18 371 33q70 6 137.5 12t120.5 10t86 7t35 3q0 -2 1 -17t2 -36.5t2 -46.5t1 -45l1 -30q0 -7 -5 -10q-6 -3 -25.5 -3h-62.5h-110.5t-133 1t-140.5 2t-128 3l29 -405q57 8 137 17t151.5 17.5t124 14.5t54.5 6q0 -2 2 -20.5t4 -43t4 -51t2 -43.5 q0 -16 -11.5 -20t-43.5 -4q-20 0 -51 1t-74 1h-291l51 -713h-217v20q0 33 -1 107t-2 174t-3 217t-4 234.5t-4 226t-4.5 193.5t-3.5 135.5t-1 52.5z" />
<glyph unicode="G" horiz-adv-x="1255" d="M2 672q0 193 45 333t119 231t168 135t194 44q123 0 246 -60.5t223 -176.5l-172 -127q-76 94 -156.5 138t-158.5 44q-74 0 -140.5 -38t-116.5 -111.5t-80 -179t-30 -240.5q0 -121 33 -214.5t86 -157t122 -97t140 -33.5q66 0 134.5 32.5t124 100t91 171t35.5 245.5h-167.5 t-131 1t-85 4t-29.5 11v27.5t2 33.5q2 18 4 39q193 18 348 33q66 6 130 12.5t114.5 10.5t83 7t36.5 3q0 -2 2.5 -23.5t4.5 -49t4 -54.5t2 -41q0 -12 -22.5 -13t-96.5 -1q0 -176 -50 -309.5t-130 -222.5t-182.5 -133t-206.5 -44q-102 0 -198.5 42t-171.5 126t-121 209 t-46 293z" />
<glyph unicode="H" horiz-adv-x="987" d="M16 1384q0 43 2 43q2 -2 19 -2h34.5t41.5 2q23 2 47 5l42 -596q51 6 121 12t144 13t143.5 14.5t118.5 11.5l-8 551q57 -4 102 -6q39 -2 73 -4.5t40 -0.5l-2 -61t-5 -161.5t-7 -228.5t-9.5 -262t-9.5 -262t-8 -228.5t-7 -161t-5 -60.5q-4 2 -25.5 3t-48.5 1h-68l-10 705 h-117.5t-140.5 1t-141.5 1h-122.5l51 -709h-108q-20 0 -39 -1t-35 -1h-33l-2 85q-2 85 -5 219t-7 297t-7.5 316.5t-5.5 279.5t-2 185z" />
<glyph unicode="I" horiz-adv-x="600" d="M4 1280v27.5t2 33.5q2 18 4 39q147 18 262 31q49 6 96.5 11t85.5 9.5t62.5 6.5t26.5 2q0 -2 2 -20.5t4 -43t4 -51.5t2 -43q0 -10 -1 -15t-6 -7.5t-18.5 -1t-37.5 1.5h-89.5t-107.5 2q4 -72 10 -164t13.5 -195.5t14.5 -210t14 -208t14.5 -189.5t11.5 -154l180 -22 q0 -20 2 -39q0 -16 1 -33.5t1 -28.5q0 -10 -51 -12t-131 -2h-219q-49 0 -78 -1q-14 0 -26 -1q-12 0 -20 1q-16 1 -21 6t-5 18q0 16 2 42.5t5 51t5 43t2 20.5q18 -2 41 -4q20 -2 46 -5t57 -7q-2 70 -4 159t-4 188t-4 202.5t-4.5 202t-4.5 187.5t-2 157h-70.5t-42 1t-19.5 4 t-5 11z" />
<glyph unicode="J" horiz-adv-x="612" d="M-4 246q0 2 15.5 20.5t35 40t36.5 39.5l17 19q8 -4 22.5 -28t34 -50.5t45 -47t56.5 -20.5q72 0 96.5 71.5t24.5 213.5q0 123 -10.5 306t-18.5 439l-41 -8q-18 -4 -43 -6l-4 25q-4 26 -9 59t-9 63.5t-4 36.5v2l249 11l72 -947q2 -31 3 -61.5t1 -58.5q0 -76 -11 -141.5 t-40 -115t-79 -77t-126 -27.5q-68 0 -120 27.5t-89 65.5t-62.5 79t-41.5 70z" />
<glyph unicode="K" horiz-adv-x="921" d="M8 1436l228 -2q0 -2 -1.5 -58.5t-2.5 -151t-2 -214t-3 -246.5q53 59 128 145t154 177.5t153.5 178.5t128.5 148l102 -94q-47 -59 -121 -154.5t-155.5 -202t-162.5 -210t-141 -179.5q27 -18 66 -45.5t84 -58.5t94 -63.5t96 -65.5q111 -76 232 -160l-140 -176 q-102 94 -198 182q-41 37 -84 77t-85 78t-79 73t-63 61l-13 -14q0 -96 -1 -179t-3 -145.5t-3 -97.5l-1 -35h-18q-16 0 -36 -1t-40 -1q-23 -2 -47 -2q-14 287 -25 555q-6 115 -11 235.5t-10 237.5t-10.5 221.5t-9.5 186.5z" />
<glyph unicode="L" horiz-adv-x="856" d="M12 1430l144 2l65 -1285l25 3q26 4 68 9t96.5 12t109.5 13l299 37q-2 0 -2 -33.5t-2 -74.5q-2 -47 -2 -107l-772 -6l-2 80q-2 80 -5 207t-6 286.5t-6.5 318.5t-5.5 301t-4 237z" />
<glyph unicode="M" horiz-adv-x="1312" d="M4 8q12 104 29 221q14 100 30.5 226.5t34.5 259.5q41 309 95 706l196 2l115 -393q20 -74 41.5 -144.5t38 -124.5t27 -88t12.5 -34l202 784h172h62l10 -61q10 -62 25.5 -162t36 -227t43.5 -260l114 -709q-68 -2 -121 -2h-125l-5 56q-5 55 -13 144t-18.5 203.5t-20.5 234.5 t-19.5 234.5t-17.5 203.5t-12 144l-4 54q-63 -244 -117 -432q-23 -82 -44 -160t-37.5 -138.5t-25.5 -97.5l-10 -36l-188 -15l-195 871l-86 -1268q-63 2 -112 4q-43 2 -78 2t-35 2z" />
<glyph unicode="N" horiz-adv-x="983" d="M4 8q2 104 6 221q4 100 8.5 226.5t8.5 259.5q10 309 24 706l197 2q143 -328 256 -585q49 -111 95 -215.5t83 -186.5t59.5 -132t24.5 -50l-82 1169h172q29 0 42 2q5 1 9 1q7 0 9 -2q4 -2 3 -12l-1 -52v-137t-1.5 -191.5t-2.5 -222.5t-2 -230.5t-2 -217t-2 -182.5t-1 -125 v-46l-188 4l-549 1125l59 -1137q-63 2 -112 4q-43 2 -78 2t-35 2z" />
<glyph unicode="O" horiz-adv-x="1230" d="M0 662q0 154 27.5 268t75 198t109.5 138.5t133 87t144.5 46t145.5 13.5q143 0 248.5 -54t173 -147.5t100.5 -220.5t33 -274q0 -180 -52.5 -314.5t-138.5 -223.5t-195.5 -133t-221.5 -44q-111 0 -215.5 41t-185.5 124t-131 207t-50 288zM143 688q0 -111 23.5 -206 t73 -165.5t123.5 -110.5t176 -40q76 0 155.5 23.5t145 87t108.5 173t43 281.5q0 127 -35.5 221.5t-95 156.5t-134.5 93t-155 31t-157.5 -35t-137 -102.5t-96.5 -170t-37 -237.5z" />
<glyph unicode="P" horiz-adv-x="868" d="M8 1384q0 43 2 43q2 -2 19 -2h34.5t40.5 2q23 2 48 5l8 -117q53 16 134 31.5t167 15.5q68 0 134.5 -15.5t118.5 -53.5t84.5 -104.5t32.5 -170.5q0 -111 -50 -187.5t-135 -129t-196.5 -87t-236.5 -61.5l39 -559h-109q-20 0 -38.5 -1t-34.5 -1h-33l-1 49t-3 133t-5 193.5 t-5.5 229.5t-5.5 240.5t-5 227t-3 190.5t-1 129zM168 1178l33 -455q49 8 128 28.5t155.5 57.5t132 89t55.5 126v20q-6 49 -30 81t-59.5 50.5t-79.5 25.5t-91 7q-66 0 -131.5 -10t-112.5 -20z" />
<glyph unicode="Q" horiz-adv-x="1236" d="M0 717q0 147 33 274t100.5 220.5t172 147.5t249.5 54q70 0 144.5 -13.5t145 -46t133 -88t110 -138.5t75 -198.5t27.5 -269.5q0 -160 -48 -280.5t-128 -204.5q41 -29 78.5 -54.5t66.5 -43.5q33 -23 60 -41l-140 -176q-29 27 -65 59q-31 29 -71 64.5t-83 76.5 q-63 -31 -126.5 -44t-133.5 -13q-113 0 -220.5 45t-192.5 135t-136 223.5t-51 311.5zM199 731q0 -172 42 -282.5t108.5 -173t146 -86t155.5 -23.5q49 0 84 8q-47 43 -89 83t-74.5 69.5t-51 48t-16.5 18.5t16.5 11.5t31.5 24.5t31.5 24.5t16.5 11.5q0 -2 24.5 -20.5t66.5 -47 t95.5 -65.5t108.5 -76q76 68 114 182.5t38 249.5q0 137 -38 239.5t-99.5 170t-139.5 101.5t-160 34q-78 0 -152.5 -32t-132 -94.5t-92 -156.5t-34.5 -219z" />
<glyph unicode="R" horiz-adv-x="909" d="M8 1384q0 43 2 43q2 -2 19 -2h34.5t40.5 2q23 2 48 5l8 -117q53 16 134 31.5t167 15.5q68 0 134.5 -15.5t118.5 -53.5t84.5 -104.5t32.5 -170.5q0 -100 -40.5 -172t-111.5 -123t-165 -86t-203 -62q27 -18 65 -44.5t83 -58.5t94 -65.5t96 -66.5q111 -76 236 -160 l-140 -176q-113 102 -213 197q-43 39 -88 81t-87 80.5t-78.5 71.5t-61.5 58l35 -498h-109q-20 0 -38.5 -1t-34.5 -1h-33l-1 49t-3 133t-5 193.5t-5.5 229.5t-5.5 240.5t-5 227t-3 190.5t-1 129zM168 1178l32 -455q49 8 128.5 28.5t156 57.5t132 89t55.5 126v20q-6 49 -30 81 t-59.5 50.5t-79.5 25.5t-91 7q-66 0 -131.5 -10t-112.5 -20z" />
<glyph unicode="S" horiz-adv-x="970" d="M2 991q0 66 30.5 138.5t87 136t134.5 106.5t172 47q14 0 27.5 1t27.5 1q121 0 201 -23.5t129 -52t69 -51.5l21 -24l-21 -30q-20 -30 -46.5 -64.5t-48 -63.5t-21.5 -27t-20.5 22.5t-59.5 44.5t-94 43t-125 19q-47 0 -92 -19t-81 -52t-58.5 -76t-22.5 -88q0 -55 43 -101.5 t147 -62.5q61 -10 153.5 -27.5t177.5 -61.5t145.5 -124t60.5 -215q0 -123 -48 -198.5t-119 -117.5t-151.5 -56.5t-148.5 -14.5q-113 0 -197 21.5t-140 47t-84 45.5l-27 21l47 176q57 -45 118 -82q53 -31 116 -56.5t122 -25.5q76 0 137.5 20.5t104.5 55.5t65.5 80t22.5 96 q0 82 -33 130.5t-85 77t-120.5 43t-139.5 26.5t-138.5 29.5t-119.5 50t-85 89t-33 146.5z" />
<glyph unicode="T" horiz-adv-x="919" d="M4 1262v27.5t2 33.5q2 18 4 39q233 18 420 31q80 6 156 11t137 9t101 6t46 2q0 -2 2 -20.5t4.5 -43t4.5 -51t2 -42.5v-15.5t-8.5 -7.5t-26 -1t-51.5 1h-124t-153 2q6 -84 13.5 -193.5t15.5 -229.5t16 -242.5t15.5 -231t13.5 -197t10 -139.5l-233 -14q0 23 -1 48.5 t-1 55.5q0 111 3 265.5t6 315.5t6 310.5t3 251.5q-190 2 -286.5 2t-96.5 17z" />
<glyph unicode="U" horiz-adv-x="1134" d="M37 492v72.5t1 163.5t1 211t1 214t2 174t3 88l164 -2q-2 -6 -3 -55t-1 -125q0 -98 1 -221t2 -234.5t3 -190.5t2 -87q10 -150 88 -225.5t246 -75.5q94 0 154.5 36.5t96.5 105.5t50 165t14 215v86t-1 123.5t-2 141.5t-2 139.5t-2 119.5t-3 80l227 -2v-43q0 -45 -1 -129 t-2 -190.5t-3 -227.5t-4 -240.5t-4 -230t-3 -194.5t-2 -134l-1 -51h-19q-16 0 -35.5 -1t-39.5 -1q-23 -2 -47 -2q0 18 -3 41q-2 20 -4 48t-4 63q-66 -55 -151.5 -86t-198.5 -31q-117 0 -212 31.5t-163.5 94t-106.5 154t-38 212.5z" />
<glyph unicode="V" horiz-adv-x="1228" d="M2 1319q70 29 123 51q47 20 85 36.5t40 16.5l18 -51q19 -51 48.5 -136t67.5 -192.5t77 -220t75.5 -220t66.5 -191.5t47 -136l18 -51l17 53q17 52 45 137t62.5 192.5t72.5 220t74 221t63.5 193.5t45.5 136l17 52q10 -4 20 -9q10 -4 21.5 -9t23.5 -9q29 -10 64 -25 l-399 -1376q-35 -2 -72 -2h-133h-51q-10 0 -21 2l-258 660q-113 290 -258 657z" />
<glyph unicode="W" horiz-adv-x="1638" d="M-2 1319q72 29 127 51q47 20 87 36.5t42 16.5l16 -55q17 -55 41.5 -144t56 -204t64.5 -234.5t63.5 -234.5t55 -204t39.5 -143l16 -54q43 242 78 432q14 80 28.5 157.5t24.5 139.5q12 72 25 135l188 14l195 -870l250 1267q61 -12 112 -20q20 -4 41 -7t37 -7q18 -4 35 -9 l-16 -60q-15 -60 -39.5 -156.5t-56 -220.5t-64.5 -253l-176 -688l-197 -2q-63 219 -115 391q-23 74 -43 144.5t-36.5 126t-27.5 88.5l-11 34l-125 -784q-31 -2 -62 -2h-112h-43q-8 0 -17 2l-241 660q-106 291 -240 657z" />
<glyph unicode="X" horiz-adv-x="1146" d="M2 1274q-4 0 24.5 23.5t65.5 51t70 51.5l33 23l133 -190q59 -86 137 -196.5t162 -227.5q74 115 143.5 224.5t123.5 195.5t87 138t33 54q4 0 21.5 -11t37.5 -26q23 -16 53 -34q-57 -104 -122 -220q-55 -98 -126 -223t-143 -254q76 -109 143.5 -205t120.5 -172 q61 -88 115 -163l-53 -58q-20 -23 -36.5 -41t-16.5 -16l-30 39t-81 103.5t-118.5 150.5t-143.5 182q-55 -98 -103.5 -184t-84 -150.5t-55.5 -102.5l-21 -38l-27 24q-27 25 -58.5 53.5t-57 53.5t-23.5 25l25 38q26 37 68 102.5t97.5 151.5t116.5 183z" />
<glyph unicode="Y" horiz-adv-x="1148" d="M2 1274q-4 0 24.5 23.5t65.5 51t70 51.5l33 23q78 -115 155 -227q66 -96 139.5 -202.5t133.5 -192.5q78 123 149.5 235.5t125.5 197.5t86 136t30 51q4 0 21.5 -11t37.5 -26q23 -16 53 -34q-63 -111 -131 -232q-59 -104 -131.5 -234t-146.5 -263l59 -619h-108 q-20 0 -39 -1t-35 -1h-33v227v97.5v99.5t1 94t1 82z" />
<glyph unicode="Z" horiz-adv-x="978" d="M16 1419v4l40 -2t103.5 -5t145.5 -6t166 -7q199 -8 449 -19l18 -133q-199 -309 -354 -551q-66 -102 -129.5 -201.5t-112.5 -176t-79 -122.5t-27 -46q2 0 51 5t122.5 12t159.5 15.5t160 15.5t124 11l50 4q2 0 3 -35t3 -77t3 -76.5t1 -32.5l-37 1q-38 1 -100.5 1h-141.5 h-161h-161h-140t-99 1l-38 1q0 2 -1 19.5t-3 39.5q-2 25 -2 58l352 557q66 104 129 204.5t113.5 178.5t80.5 125l31 47q0 -2 -50 -6t-126 -10.5t-165 -12.5t-166.5 -12t-130 -9t-56.5 -3v2q0 10 -4 43.5t-8 73.5t-8.5 76t-4.5 48z" />
<glyph unicode="[" horiz-adv-x="434" d="M18 1565q82 18 150 32q57 12 104.5 22.5t51.5 10.5q0 -2 1 -17.5t2 -37t2 -46t1 -44.5q0 -29 -2 -37t-4 -6q-4 2 -37 3t-131 3l71 -1475q16 4 42 5.5t50 5.5q29 2 60 6q-2 0 -2 -34t-2 -75q-2 -47 -2 -106h-332v28q0 43 -1 141.5t-2 229.5t-3 284.5t-4 308.5t-4 298 t-4.5 254t-3.5 177.5t-1 68.5z" />
<glyph unicode="\" horiz-adv-x="1136" d="M2 1274q-4 0 24.5 23.5t65.5 51t70 51.5l33 23l143 -204q66 -92 148.5 -210t168.5 -241l459 -655l-53 -58q-20 -23 -36.5 -41t-16.5 -16l-43 56q-43 55 -114 144t-160 203.5t-183 233.5t-184.5 233.5t-162 204.5t-114.5 145.5t-45 55.5z" />
<glyph unicode="]" horiz-adv-x="413" d="M6 -55q31 -4 60 -6q25 -4 50 -5.5t42 -5.5l71 1549q-96 -2 -129.5 -3t-40.5 -4v3q-4 2 -4 34q0 35 3 77t3 46q4 0 51.5 -10t104.5 -23q68 -14 150 -32q0 -2 -1 -68.5t-3.5 -177.5t-4.5 -254t-4 -298t-4 -308.5t-3 -284.5t-2 -229.5t-1 -141.5v-28h-332q0 47 -2 84z" />
<glyph unicode="^" horiz-adv-x="962" d="M2 907q104 147 186 262q35 49 69 96.5t59.5 84t41.5 59.5l17 23h71h205l271 -582q-35 -16 -64 -27l-65 -24l-21 35q-20 36 -50 91.5t-64.5 119t-65.5 118t-50 91.5l-20 36l-20 -36q-19 -35 -49.5 -89.5t-65.5 -118t-64.5 -118t-50.5 -90.5l-22 -35q-2 0 -40 15.5 t-85 35.5z" />
<glyph unicode="_" horiz-adv-x="874" d="M25 -10v27.5t2 33.5q2 18 4 39q207 18 372 33q70 6 137.5 12t122 10.5t88 7.5t37.5 3q0 -2 2.5 -20.5t4.5 -43t4 -51.5t2 -43t-13.5 -20.5t-50.5 -4.5q-23 0 -57.5 1t-85.5 1h-184.5t-183.5 1t-142 1h-57q-2 0 -2 13z" />
<glyph unicode="`" horiz-adv-x="516" d="M12 1364l140 176q90 -98 157 -176q29 -33 56.5 -64.5t49 -56t33.5 -39.5l13 -14q-2 0 -16.5 -11.5t-32 -24.5t-31.5 -24.5t-16 -11.5l-15 12q-16 11 -40.5 28.5t-56.5 40t-65 44.5q-78 53 -176 121z" />
<glyph unicode="a" d="M-2 487q0 164 55.5 268.5t138 165t182 84t185.5 23.5q150 0 260 -70l-6 123l227 -2q0 -2 -1 -50t-2 -126t-2 -178t-3 -203.5t-3 -203t-3 -177.5t-3 -125t-3 -47h-19q-16 0 -35.5 -1t-39.5 -1q-23 -2 -47 -2q0 18 -2 41q-2 20 -4.5 47t-4.5 62q-66 -53 -151.5 -83 t-198.5 -30q-115 0 -211 30.5t-164.5 92t-106.5 153t-38 209.5zM143 500q0 -66 23.5 -127.5t70 -109.5t116 -77.5t161.5 -29.5q76 0 134.5 32.5t97 86t58 121t19.5 136.5q0 68 -18.5 128.5t-55 107.5t-92 74.5t-129.5 27.5q-96 -2 -167.5 -34.5t-119.5 -85t-73 -118 t-25 -132.5z" />
<glyph unicode="b" horiz-adv-x="1122" d="M8 1384q0 43 2 43q2 -2 19 -2h34.5t40.5 2q23 2 48 5l36 -537q43 37 93.5 62.5t103.5 41t106.5 22.5t102.5 7q115 0 205 -41t151.5 -111.5t94 -165t32.5 -198.5q0 -96 -32.5 -187.5t-98 -163t-163 -115.5t-228.5 -44q-184 0 -309 70l6 -70h-109q-20 0 -38.5 -1t-34.5 -1 h-33l-1 49t-3 132t-5 192.5t-5.5 228.5t-5.5 239t-5 226.5t-3 189t-1 127.5zM207 651l22 -344q45 -68 123 -109.5t193 -41.5q76 0 134 32.5t97 86t58.5 121t19.5 136.5q0 68 -18.5 128.5t-55.5 107.5t-92 74.5t-129 27.5q-137 -4 -225 -66.5t-127 -152.5z" />
<glyph unicode="c" horiz-adv-x="987" d="M-10 514q0 96 32.5 187.5t99 163t165 115.5t229.5 44q139 0 236.5 -45t165.5 -135l-127 -99q-47 55 -106.5 90t-162.5 35q-76 0 -134 -32.5t-97 -86t-58.5 -121t-19.5 -136.5q0 -68 17.5 -128.5t54.5 -107.5t92 -74.5t131 -27.5q104 4 181 42t124 97l135 -84 q-43 -61 -100 -102t-120.5 -66t-129.5 -35t-125 -10q-115 0 -205 41t-151.5 111.5t-94 165t-32.5 198.5z" />
<glyph unicode="d" d="M-2 487q0 164 55.5 268.5t138 165t182 84t185.5 23.5q158 0 272 -76q-6 139 -13 265t-11 219l227 -2q0 -2 -1 -65.5t-2 -167t-2 -234.5t-3 -268.5t-3 -268.5t-3 -233.5t-3 -165t-3 -62.5h-19q-16 0 -35.5 -1t-39.5 -1q-23 -2 -48 -2q-2 18 -2 41q-2 20 -2 47t-2 62 q-131 -113 -348 -113q-115 0 -211 30.5t-164.5 92t-106.5 153t-38 209.5zM143 500q0 -66 23.5 -127.5t70 -109.5t116 -77.5t161.5 -29.5q76 0 134.5 32.5t97 86t58 121t19.5 136.5q0 68 -18.5 128.5t-55 107.5t-92 74.5t-129.5 27.5q-96 -2 -167.5 -34.5t-119.5 -85 t-73 -118t-25 -132.5z" />
<glyph unicode="e" horiz-adv-x="1083" d="M-2 487q0 164 55.5 269.5t140.5 166t184 83t185 22.5q109 0 194 -36t145.5 -98.5t96 -145t48.5 -177.5q0 -2 -64.5 -9t-163 -17t-212 -21.5t-211 -23t-163 -18.5t-65.5 -9q4 -63 25.5 -120.5t63.5 -101.5t105.5 -69.5t151.5 -25.5q84 0 149.5 48t104.5 109l197 -82 q-66 -96 -178.5 -162.5t-268.5 -66.5q-115 0 -211 30.5t-164.5 92t-106.5 153t-38 209.5zM182 612l287 50q53 8 104.5 17t90 15t62.5 10l24 5q-10 59 -75 99t-173 40q-139 0 -221.5 -66t-98.5 -170z" />
<glyph unicode="f" horiz-adv-x="665" d="M3 900v8q0 13 2 21q3 11 12.5 16t27.5 9q-2 16 -2 30.5v31.5q0 82 15.5 154.5t49 128t90 87t138.5 31.5q68 0 119 -27.5t89 -65.5t63.5 -80t41.5 -68q0 -2 -15.5 -20.5t-34.5 -40t-37 -39.5l-17 -19q-10 4 -23.5 27.5t-33 49t-45 46t-56.5 20.5q-55 0 -86 -57.5 t-45 -161.5q53 6 107.5 13t97.5 11.5t70.5 7.5t31.5 3q0 -2 2 -20.5t4 -43t4 -51.5t2 -43q0 -12 -5 -17t-20 -7.5t-44 -1t-76 1.5h-89t-95 2q-2 -41 -3 -85t-1 -92q0 -133 5 -292.5t11 -348.5l-141 -20l-64 838h-42t-7 14q0 31 -1 50z" />
<glyph unicode="g" d="M-2 489q0 162 55.5 267.5t138 165t182 83t185.5 23.5q66 0 122 -13.5t103 -35.5q33 4 79 11t89 13.5t73 11.5t32 5t7 -32t10 -69.5t9 -70.5t4 -35q-2 0 -45 6t-92 15q47 -66 72 -150t25 -172q0 -92 -31 -181t-92.5 -161t-153.5 -117t-215 -51q-59 -4 -122.5 -4t-116 -2 t-86 -7t-33.5 -18q0 -18 77 -47q76 23 159 32t159 9q117 0 202 -22.5t141 -61.5t84 -90t28 -108q0 -51 -29 -99.5t-89.5 -86.5t-154.5 -60.5t-225 -22.5q-115 0 -210 16.5t-164 49.5t-106.5 82t-37.5 112q0 84 59 150q-41 27 -59.5 59.5t-18.5 67.5q0 51 41 92t125 53 q-86 61 -133 159.5t-47 233.5zM143 500q0 -66 23.5 -127.5t70 -109.5t116 -77.5t161.5 -29.5q76 0 134.5 32.5t97 86t58 121t19.5 136.5q0 68 -18.5 128.5t-55 107.5t-92 74.5t-129.5 27.5q-96 -2 -167.5 -34.5t-119.5 -85t-73 -118t-25 -132.5zM219 -315q0 -35 27.5 -63 t71.5 -46t100.5 -28.5t113.5 -10.5t111.5 10.5t96.5 32t69 56t27 81.5q0 33 -21.5 57.5t-57.5 40t-83 22.5t-99 7q-66 0 -129 -11t-113 -31.5t-82 -50.5t-32 -66z" />
<glyph unicode="h" horiz-adv-x="1103" d="M8 1384q0 43 2 43q2 -2 19 -2h34.5t40.5 2q23 2 48 5l34 -500q55 37 138.5 64.5t197.5 27.5q174 0 278.5 -76t161 -190.5t74 -247.5t17.5 -248q0 -90 -5.5 -156.5t-5.5 -93.5q0 -10 2 -12l-264 -4q6 49 15 104q4 47 9 109.5t5 132.5q0 92 -12.5 188.5t-44 174t-89 127 t-149.5 49.5q-55 0 -102 -15.5t-86 -39t-70 -54.5t-55 -61l51 -709h-109q-20 0 -38.5 -1t-34.5 -1h-33l-1 49t-3 132t-5 192.5t-5.5 228.5t-5.5 239t-5 226.5t-3 189t-1 127.5z" />
<glyph unicode="i" horiz-adv-x="434" d="M4 1024l322 4q0 -2 -1 -79t-4 -192.5t-5 -248.5t-5.5 -248t-5.5 -190.5t-4 -75.5h-18q-16 0 -36 -1t-40 -1q-23 -2 -47 -2q-2 127 -8 270q-4 123 -10.5 274.5t-16.5 305.5q-2 0 -18.5 -2t-36 -4.5t-36.5 -3.5l-16 -1l-3 31t-5 67t-4 65.5t-2 31.5zM61 1153 q0 25 18.5 52.5t59.5 56.5q23 16 44.5 23t41.5 7q41 0 65.5 -28.5t25.5 -65.5q0 -41 -35 -77t-113 -36q-53 0 -80 19.5t-27 48.5z" />
<glyph unicode="j" horiz-adv-x="391" d="M-229 -317q0 2 15 20t34.5 39.5t37.5 39.5l17 19q8 -4 22.5 -27.5t34 -50t45 -47t56.5 -20.5q72 0 96.5 96t24.5 273q0 150 -10.5 354.5t-18.5 460.5q-2 0 -14.5 -2t-28.5 -7q-18 -4 -41 -6l-4 26l-9 58.5t-9.5 63.5t-4.5 37v2l250 10l72 -1100q2 -31 3 -61.5t1 -59.5 q0 -76 -11.5 -141.5t-40 -114.5t-78.5 -76.5t-126 -27.5q-68 0 -120 27.5t-89 65.5t-62.5 79t-41.5 70zM16 1153q0 25 18.5 52.5t59.5 56.5q23 16 44.5 23t41.5 7q41 0 65.5 -28.5t24.5 -65.5q0 -41 -34.5 -77t-112.5 -36q-53 0 -80 19.5t-27 48.5z" />
<glyph unicode="k" horiz-adv-x="921" d="M8 1436l228 -2q0 -2 -1.5 -63.5t-2.5 -163t-2 -229.5t-3 -261q39 23 93.5 52.5t113 63t114.5 65.5t101 58.5t73 43t28 18.5t9 -17.5t19 -44.5q12 -29 31 -65q-82 -61 -164 -121q-70 -51 -150.5 -110.5t-148.5 -108.5q61 -45 153.5 -107.5t178.5 -121.5q100 -68 207 -142 l-140 -176q-102 94 -198 182q-41 37 -84 77t-84 78t-78 71.5t-65 60.5q-4 -4 -13 -8q0 -96 -1 -180t-3 -146.5t-3 -98.5l-1 -36h-18q-16 0 -36 -1t-40 -1q-23 -2 -47 -2q-14 287 -25 555q-6 115 -11 235.5t-10 237.5t-10.5 221.5t-9.5 186.5z" />
<glyph unicode="l" horiz-adv-x="378" d="M12 1430l144 2l86 -1233q16 4 32.5 5t28.5 5q14 2 29 6q-2 0 -2 -34t-2 -75q-2 -47 -2 -106h-285l-2 80t-5 207t-6 286.5t-6.5 318.5t-5.5 301t-4 237z" />
<glyph unicode="m" horiz-adv-x="1533" d="M23 973q0 76 2 76q2 -2 18 -2h34.5t41.5 2q23 2 47 4l14 -193q25 27 59.5 56.5t83 55t110 42t136.5 16.5q59 0 103.5 -30.5t75.5 -84.5q23 18 51 38t67 37.5t87 28.5t110 11q127 0 207 -74.5t126 -186.5t66 -244q19 -133 25 -247q5 -98 5 -170v-23v-29q0 -52 3 -56 l-264 -4q4 49 10 104q4 47 7 109.5t3 134.5q0 98 -9 195.5t-33.5 175.5t-69.5 126t-115 48q-45 0 -79 -9.5t-59.5 -25.5t-45 -37.5t-35.5 -44.5q18 -66 28.5 -137.5t16.5 -145t8 -145.5t2 -135q0 -70 -1 -124t-1 -85q0 -2 -18 -2q-16 0 -41 1t-49 3q-29 2 -60 4q2 90 3 170 t1 152q0 131 -8 231t-31.5 168t-66.5 102.5t-115 34.5q-55 -2 -100 -31.5t-80 -71.5t-57.5 -85t-34.5 -70l51 -604h-109q-20 0 -38.5 -1t-34.5 -1h-33l-1 56q-1 55 -3 142t-3 196.5t-3 218t-3 203.5t-1 157z" />
<glyph unicode="n" horiz-adv-x="1103" d="M23 973q0 76 2 76q2 -2 18 -2h34.5t41.5 2q23 2 47 4l10 -127q61 41 149.5 69.5t217.5 28.5q111 -4 192.5 -40t138 -96.5t91 -137t54 -160.5t27 -169t7.5 -159q0 -90 -5.5 -156.5t-5.5 -93.5q0 -10 2 -12l-264 -4q6 49 15 104q4 47 9 109.5t5 132.5q0 92 -12.5 188.5 t-44 174t-89 127t-149.5 49.5q-57 0 -105.5 -16.5t-88 -42t-71.5 -57.5t-54 -63l57 -700h-109q-20 0 -38.5 -1t-34.5 -1h-33l-1 56q-1 55 -3 142t-3 196.5t-3 218t-3 203.5t-1 157z" />
<glyph unicode="o" horiz-adv-x="1089" d="M-2 487q0 164 55.5 268.5t138 165t182 84t185.5 23.5q115 0 206 -41t153.5 -111.5t95.5 -164t33 -199.5q0 -96 -33 -188.5t-99.5 -164t-166 -114.5t-230.5 -43q-115 0 -211 30.5t-164.5 92t-106.5 153t-38 209.5zM143 500q0 -66 23.5 -127.5t70 -109.5t116 -77.5 t161.5 -29.5q76 0 134.5 32.5t97 86t58 121t19.5 136.5q0 68 -18.5 128.5t-55 107.5t-92 74.5t-129.5 27.5q-96 -2 -167.5 -34.5t-119.5 -85t-73 -118t-25 -132.5z" />
<glyph unicode="p" horiz-adv-x="1099" d="M25 -410q0 2 1 65.5t2 167t2 234.5t3 268.5t3 268.5t3 233.5t3 165t3 62.5q2 -2 18 -2h35t41 2q23 2 47 4v-41q0 -20 1 -47t3 -62q66 53 152 83t197 30q117 0 212 -30.5t164.5 -92t107.5 -153t38 -209.5q0 -164 -55.5 -268.5t-138.5 -165t-182 -84t-185 -23.5 q-158 0 -273 74q6 -137 12.5 -263t12.5 -219zM236 492q0 -68 17 -128.5t54 -107.5t92.5 -74.5t130.5 -27.5q96 2 168 34.5t120 85t72.5 117t24.5 131.5q0 66 -23.5 128.5t-69.5 110.5t-115.5 77.5t-161.5 29.5q-76 0 -134.5 -33.5t-97.5 -87t-58 -120t-19 -135.5z" />
<glyph unicode="q" horiz-adv-x="1083" d="M0 537q0 119 38 210t106.5 152.5t165 92t210.5 30.5q111 0 197 -29.5t151 -83.5q2 35 2 61.5t2 47.5q0 23 2 41q25 -2 48 -4q20 -2 39.5 -2h35.5t19 2q2 0 3 -62.5t3 -165t3 -233.5t3 -268.5t3 -268.5t2 -234.5t2 -167t1 -65.5l-227 -2q4 94 11 219t14 265 q-115 -76 -273 -76q-86 0 -185.5 23.5t-182 84t-138 165t-55.5 268.5zM145 522q0 -68 25 -134t74 -118.5t122.5 -84t172.5 -31.5q74 0 127 28.5t89 75.5t53 107.5t17 126.5q0 70 -19.5 136t-58 119.5t-97 87t-134.5 33.5q-92 0 -161.5 -29.5t-115.5 -77.5t-70 -110.5 t-24 -128.5z" />
<glyph unicode="r" horiz-adv-x="743" d="M8 1042l238 7l-6 -115q41 31 96 60.5t115 29.5q53 0 103 -21.5t89 -46.5q45 -29 86 -65l-86 -86l-86 -86l-17 19q-16 20 -40.5 43.5t-54 43t-56.5 19.5q-47 0 -89 -35t-71 -70q-6 -135 -9 -267t-5 -236q-2 -123 -4 -232q-39 -2 -72 -2q-29 -2 -51 -2t-27 -2q-2 0 -4 44 t-6 116.5t-9 167t-9 191.5t-9.5 191.5t-8.5 168t-5 118.5t-2 47z" />
<glyph unicode="s" horiz-adv-x="972" d="M2 651q0 68 30.5 131.5t87 113.5t134.5 83t172 37q14 0 27.5 1t27.5 1q121 0 201 -23.5t129 -52.5t69 -52l21 -24l-21 -30q-20 -29 -46.5 -64t-48 -63.5t-21.5 -26.5t-20.5 22.5t-59.5 44t-94 43t-125 19.5q-47 0 -98.5 -16.5t-94.5 -43t-70.5 -57t-27.5 -61.5 q0 -29 36 -47.5t124 -18.5q53 0 132 10.5t165 10.5q51 0 103 -10.5t93 -40t68 -83t27 -137.5q0 -90 -50.5 -150.5t-122 -97t-153.5 -53t-145 -16.5q-109 0 -189 21.5t-133 48t-79.5 47t-26.5 18.5l47 115q57 -29 118 -51q53 -20 116 -36t122 -16t110.5 11.5t88.5 31t58.5 47 t21.5 60.5q0 43 -14.5 70.5t-40 43t-60.5 21.5t-74 6q-59 0 -125.5 -7t-130.5 -7q-53 0 -99 9t-82 34t-56.5 69t-20.5 115z" />
<glyph unicode="t" horiz-adv-x="559" d="M-2 950q2 0 38 4t91 13l-16 288l227 -2q0 -2 -1 -73.5t-3 -184.5q39 4 74.5 10.5t62.5 10.5q31 6 57 8l4 -90q2 -35 4.5 -62.5t2.5 -25.5h-11q-20 0 -74.5 -1t-121.5 -5q-2 -92 -3 -189.5t-2 -190.5t-2 -177t-2 -146.5t-3 -99.5l-3 -37h-18q-16 0 -35.5 -1t-40.5 -1 q-23 -2 -47 -2q-4 127 -12 266q-6 119 -14.5 267.5t-16.5 301.5q-37 -2 -65.5 -3t-42.5 -1q-6 0 -11.5 13.5t-8.5 33t-5 41t-2 35.5z" />
<glyph unicode="u" d="M18 492v43.5t1 93t1 120t1.5 123t2.5 103.5t3 59l163 -2q-2 -8 -3 -43t-1 -86q0 -57 1 -123.5t2 -127t3 -102.5t3 -50q6 -70 28.5 -125.5t62.5 -94t101.5 -60t144.5 -21.5q92 0 152.5 38.5t96.5 107.5t49.5 165t13.5 211q-6 92 -6 160.5t-4 148.5l227 -2v-31 q0 -45 -1 -138t-4 -206.5t-5 -235.5t-5.5 -221.5t-4.5 -163.5l-1 -63h-18q-16 0 -35.5 -1t-40.5 -1q-23 -2 -47 -2q0 18 -2 41q-2 20 -4 48t-4 63q-66 -55 -152 -86t-198 -31q-117 0 -212.5 31.5t-164 94t-106.5 154t-38 212.5z" />
<glyph unicode="v" horiz-adv-x="933" d="M2 915q70 29 123 52q47 20 85 36.5t40 16.5l22 -60q21 -59 51.5 -147t65.5 -191.5t64.5 -191.5t50.5 -146l20 -59l20 59q19 60 49 149t64.5 192.5t64.5 191.5t50 147l21 60l20 -8t21.5 -9.5t23.5 -9.5q29 -10 64 -24l-271 -971q-35 -2 -71 -2h-134h-51q-10 0 -20 2 q-29 68 -60 143q-27 66 -59.5 147t-67.5 167q-82 200 -186 456z" />
<glyph unicode="w" horiz-adv-x="1458" d="M2 915q72 29 127 52q47 20 87 36.5t42 16.5l12 -38q11 -38 28 -98.5t39.5 -139t45.5 -160.5t44.5 -160t38.5 -139.5t28 -98.5l10 -36q41 166 71 296q12 55 24.5 108.5t23.5 94.5q10 49 22 94l189 15l208 -600l175 862q61 -12 112 -21q20 -4 41 -7t37 -7q18 -4 35 -8 l-12 -42q-13 -42 -32.5 -110.5t-44 -155.5t-50.5 -180q-61 -215 -138 -485l-196 -2q-68 143 -121 256q-23 49 -45.5 95t-41 82t-29.5 59l-11 22l-111 -514q-31 -2 -61 -2h-113h-43q-8 0 -16 2q-29 68 -60 143q-27 66 -60.5 147t-68.5 167q-82 201 -186 456z" />
<glyph unicode="x" horiz-adv-x="954" d="M8 870q0 2 30 27t65.5 51.5t66.5 49.5l31 22q39 -49 86 -107q41 -49 92 -112.5t108 -134.5q57 68 108.5 129t90.5 108t62.5 76t23.5 31q4 0 21.5 -11.5t37.5 -25.5q23 -16 54 -35q-41 -57 -88 -125q-41 -57 -92.5 -130t-108.5 -153q66 -80 126 -154.5t107 -133.5 q55 -68 105 -129l-53 -58q-20 -23 -37 -41t-17 -16l-29 30q-28 31 -76 82.5t-110.5 118t-130.5 140.5q-53 -74 -100 -141.5t-83 -119t-56 -80.5l-21 -30l-27 24q-26 25 -58 53.5t-57.5 53.5t-23.5 25l25 28q26 29 67 77t94.5 111.5t110.5 133.5q-68 72 -130 138.5 t-109 116.5t-76 81z" />
<glyph unicode="y" horiz-adv-x="1206" d="M6 842q-4 0 24.5 23.5t65.5 51t70 51.5l33 23q82 -131 161 -258q33 -55 70 -114.5t74 -118t70.5 -113.5t64.5 -102q66 141 130.5 275t113.5 239q57 123 110 233l32 -18q32 -19 70 -40.5t68.5 -40t28.5 -18.5t-37 -62t-91 -164.5t-128 -233.5t-146.5 -268.5t-146.5 -269.5 t-128 -234.5t-90 -166t-34 -65.5q-4 0 -21.5 10.5t-37.5 24.5l-53 37l276 583z" />
<glyph unicode="z" horiz-adv-x="968" d="M16 1010v4l40 -2t103.5 -5t145.5 -6.5t166 -7.5q199 -8 449 -18l18 -182q-176 -180 -313 -322q-59 -59 -114.5 -116.5t-98.5 -102.5t-70 -71.5t-25 -26.5t45.5 5t109 12t140 15.5t139 15.5t107.5 11t45 4t3 -35t3 -77t3 -76.5t1 -32.5l-37 1q-38 1 -100.5 1h-141.5h-161 h-161h-140t-99 1l-38 1q0 2 -1 27.5t-3 56.5q-2 37 -2 82q201 184 358 328q68 61 131.5 119.5t114.5 104.5t81 74l31 27q0 -2 -51 -6t-128 -10t-167 -12.5t-167.5 -12.5t-132 -9t-58.5 -3v2q0 10 -4 44t-8 74t-8.5 75.5t-4.5 48.5z" />
<glyph unicode="{" horiz-adv-x="581" d="M0 887l6 108q72 20 97.5 50t25.5 71q0 29 -8 63.5t-18.5 73.5t-18.5 82t-8 92v24.5t2 25.5q4 45 35.5 79.5t75.5 60t94.5 44t94.5 30t73.5 16.5t33.5 5t7.5 -30.5t7.5 -65.5l4 -94q-14 2 -33 4q-16 2 -34.5 3t-39.5 1q-47 0 -89 -10.5t-42 -42.5q0 -20 11.5 -55.5 t25.5 -78.5t25.5 -92t11.5 -98q0 -61 -25.5 -116.5t-97.5 -92.5q104 -70 142 -146.5t38 -160.5q0 -78 -23.5 -159t-51 -164t-51 -168t-23.5 -166q0 -68 21.5 -91.5t72.5 -23.5q27 0 54.5 5t49.5 11q27 8 52 19l20 -211h-31.5t-74.5 3t-98.5 13t-99.5 29.5t-80 52.5t-38 80 q-4 23 -4 42v42q0 94 16.5 188t35 182.5t35 169t16.5 148.5q0 90 -41 154.5t-154 93.5z" />
<glyph unicode="|" horiz-adv-x="468" d="M90 1485q0 35 1 62.5t1 47.5l234 -14q-4 -41 -8.5 -128t-10.5 -202.5t-12 -252t-12.5 -278.5t-13.5 -282.5t-12 -261.5t-10 -216t-9 -148l-129 10v72q0 82 -1.5 206.5t-3.5 271t-5 304.5t-5 307.5t-3 279.5t-1 222z" />
<glyph unicode="}" horiz-adv-x="581" d="M4 -311l21 211q25 -10 51 -19q23 -6 49.5 -11t54.5 -5q51 0 72.5 23.5t21.5 91.5q0 82 -23.5 166.5t-51 167.5t-51 164t-23.5 159q0 84 38 160.5t142 146.5q-72 37 -97.5 92.5t-25.5 116.5q0 49 11.5 98t25.5 92t25.5 78t11.5 56q0 33 -42 43t-89 10q-23 0 -40 -1t-34 -3 q-18 -2 -33 -4q0 53 5 94q2 35 6 65.5t8 30.5q2 0 32.5 -5t74.5 -16.5t94.5 -30t94.5 -44t75.5 -60t35.5 -79.5q2 -12 2 -24.5v-25.5q0 -49 -8 -92t-18 -82t-18.5 -73.5t-8.5 -63.5q0 -41 25.5 -70.5t97.5 -50.5l6 -108q-113 -29 -153.5 -93.5t-40.5 -154.5q0 -68 16 -148.5 t34.5 -169t35 -182.5t16.5 -188q0 -23 -1 -42.5t-3 -41.5q-6 -63 -59.5 -99t-120 -53.5t-130 -21.5t-93.5 -4h-19z" />
<glyph unicode="~" horiz-adv-x="677" d="M8 702q0 8 19.5 49.5t50.5 86.5t65.5 80.5t65.5 35.5q33 0 67.5 -21.5t64.5 -48t54.5 -48t36.5 -21.5q12 2 31.5 25.5t36.5 52.5q20 33 41 72l104 -56q-29 -63 -59 -114q-27 -45 -57.5 -83t-61.5 -46q-23 -6 -41 -7q-35 0 -60.5 12.5t-46 28t-40 28.5t-39.5 13 q-25 -4 -44.5 -20t-31.5 -35q-16 -23 -27 -49q-29 18 -51 33q-20 12 -40.5 22t-31.5 10h-4h-2z" />
<glyph unicode="&#xa1;" horiz-adv-x="468" d="M92 10q0 4 3.5 55t7.5 131t10 180.5t13 206t13.5 205.5t10.5 178t7 126t3 50l129 -10v-8q0 -20 1 -79.5t4 -141.5t6 -181.5t6 -200t6.5 -194.5t6.5 -166.5t5 -117.5t2 -48zM109 1312q0 41 34.5 77t112.5 36q53 0 80 -19.5t27 -48.5q0 -25 -18.5 -52t-59.5 -56 q-23 -16 -44.5 -23.5t-41.5 -7.5q-41 0 -65.5 28.5t-24.5 65.5z" />
<glyph unicode="&#xa2;" horiz-adv-x="987" d="M-4 698q0 82 24.5 162t73.5 147.5t123 118t172 70.5q-2 104 -3 167.5t-1 68.5l233 -15q-4 -35 -7 -90t-7 -123q104 -12 182 -56t138 -120l-127 -98q-39 45 -85 77.5t-118 43.5q-6 -82 -11 -172.5t-10.5 -181.5t-10.5 -182t-11 -173q92 10 158.5 46t109.5 91l135 -84 q-37 -55 -86 -93t-103 -62.5t-110.5 -38t-111.5 -17.5l-13 -188l-129 10v180q-96 14 -170.5 59.5t-127 114t-80 155.5t-27.5 183zM219 678q0 -104 45 -194.5t137 -125.5l-8 662q-86 -47 -130 -143.5t-44 -198.5z" />
<glyph unicode="&#xa3;" horiz-adv-x="905" d="M0 786q0 23 12.5 30t57.5 11q8 135 36.5 244t73.5 185.5t105.5 117.5t134.5 41q86 0 187.5 -61.5t215.5 -192.5l-125 -98q-150 170 -256 170q-84 0 -131 -100.5t-51 -286.5q74 8 151.5 15t142 13.5t106.5 9.5t45 3q0 -2 2 -20.5t4 -43t4 -51.5t2 -43t-15.5 -20t-60.5 -4 h-127h-124.5t-127.5 2l4 -41q20 -258 81 -381t147 -123q123 0 260 241l118 -90q-100 -160 -208.5 -235.5t-210.5 -75.5q-96 0 -179 66q-45 -49 -102 -72t-137 -27l-31 117q27 -8 53 -8q29 0 49.5 11t34 27.5t20.5 36t11 37.5q-51 92 -80 221.5t-29 295.5h-51t-10 14 q0 23 -1 39t-1 26z" />
<glyph unicode="&#xa4;" horiz-adv-x="1261" d="M0 1274q-4 0 24.5 23.5t65.5 51t70 51.5l33 23q27 -37 59 -84q29 -41 65.5 -94t83.5 -119q72 35 149.5 49.5t149.5 16.5q88 0 166 -25q66 106 107 170t39 64q4 0 21.5 -11.5t37.5 -25.5q23 -16 53 -35q-16 -27 -37 -63q-16 -31 -39.5 -74t-52.5 -94q92 -70 142.5 -180.5 t50.5 -237.5q0 -117 -47 -225.5t-142 -182.5q25 -37 45.5 -65.5t36.5 -50.5l31 -43l-53 -58q-20 -23 -36.5 -41t-16.5 -16q-20 23 -43 53q-20 25 -48 60.5t-63 81.5q-45 -16 -96 -22.5t-105 -6.5q-92 0 -166 20q-27 -47 -47 -84t-37 -65q-18 -33 -32 -58l-27 25t-58.5 53.5 t-57 53t-23.5 24.5t27.5 39t68.5 104q-76 61 -118 155.5t-42 219.5q0 106 24.5 188.5t67.5 141.5zM285 664q0 -66 23.5 -127.5t69.5 -109.5t115.5 -78t161.5 -30q76 0 134.5 33t97.5 86.5t58.5 121t19.5 136.5q0 68 -18.5 128.5t-55.5 107.5t-92.5 74.5t-128.5 27.5 q-96 -2 -168 -34.5t-120 -85t-72.5 -118t-24.5 -132.5z" />
<glyph unicode="&#xa5;" horiz-adv-x="1148" d="M2 1274q0 2 29.5 26.5t65.5 51t67 48.5l31 23q78 -115 155 -227q66 -96 139.5 -202.5t133.5 -192.5q78 123 149.5 235.5t125.5 197.5t86 136t30 51q4 0 21.5 -11t37.5 -26q23 -16 53 -34q-63 -111 -131 -232q-59 -104 -131.5 -234t-146.5 -263l4 -39q53 6 102 10t87 7 t60.5 5t26.5 2q0 -2 2 -20.5t4.5 -43t4.5 -51t2 -42.5t-22.5 -21.5t-76.5 -5.5q-33 0 -75.5 1t-100.5 1l8 -86q94 10 166 16t86 6h2q0 -2 2 -20t4.5 -43t4.5 -51.5t2 -42.5t-22.5 -20.5t-78.5 -4.5h-149l16 -176h-108q-20 0 -39 -1t-35 -1h-33v180h-168q-53 0 -75.5 2 t-22.5 13q0 23 -1 38t-1 25q0 20 8 28.5t36 13.5t81 8t143 14v104h-168q-53 0 -75.5 2t-22.5 12q0 23 -1 40.5t-1 27.5q0 18 8 26.5t36 12.5t81 7t145 13v33q-39 45 -95 113.5t-118.5 143.5t-125 150.5t-113 135t-81 95.5t-28.5 36z" />
<glyph unicode="&#xa6;" horiz-adv-x="468" d="M90 1481q0 35 1 63.5t1 50.5l234 -14q-4 -47 -9.5 -153.5t-12.5 -247t-14 -303t-16 -324.5h-172q-2 129 -4 261t-4 254t-3 228.5t-1 184.5zM104 465l166 10q-4 -109 -9 -211t-9 -188t-8 -154.5t-6 -109.5l-129 10v115v234t-5 294z" />
<glyph unicode="&#xa7;" horiz-adv-x="995" d="M2 672q0 41 13.5 94t39.5 104q-29 31 -41 75t-12 112q2 74 40 140.5t101.5 117.5t150.5 81.5t187 30.5q121 0 201 -23.5t129 -52t69 -51.5l21 -24l-21 -30q-20 -29 -46.5 -64t-48 -63.5t-21.5 -26.5t-20.5 22.5t-59.5 44t-94 43t-125 19.5q-47 0 -98.5 -17.5t-94.5 -45.5 t-70.5 -61.5t-27.5 -66.5t37 -53.5t127 -20.5q43 0 100.5 5.5t124.5 5.5q57 0 121 -10.5t117 -43t87 -91t34 -152.5q0 -51 -15.5 -92t-44.5 -74q25 -33 42.5 -79t17.5 -108q0 -90 -50.5 -150.5t-122 -97t-153.5 -53t-145 -16.5q-109 0 -189 21.5t-133 48t-79.5 47 t-26.5 18.5l47 115q57 -29 118 -51q53 -20 116 -36t122 -16t110.5 11.5t88.5 31t58.5 47t21.5 60.5q0 47 -16.5 75.5t-45.5 44t-66.5 20.5t-82.5 5q-49 0 -101.5 -3t-105.5 -3q-57 0 -108.5 8.5t-90.5 34t-62.5 71.5t-23.5 122zM174 670q0 -35 38 -58.5t130 -23.5 q45 0 110.5 7t141.5 7q49 0 96 -6q15 24 15 49q0 51 -19.5 81t-51.5 45t-76 20.5t-93 5.5q-35 0 -71 -1t-70 -1h-33t-33 2q-37 -29 -60.5 -64t-23.5 -63z" />
<glyph unicode="&#xa8;" horiz-adv-x="641" d="M4 1276q0 25 18.5 52t59.5 56q23 16 44 23.5t42 7.5q41 0 65.5 -28.5t24.5 -65.5q0 -41 -35 -77t-112 -36q-53 0 -80 19.5t-27 48.5zM332 1276q0 25 18.5 52t59.5 56q23 16 44 23.5t42 7.5q41 0 65.5 -28.5t24.5 -65.5q0 -41 -35 -77t-113 -36q-53 0 -79.5 19.5 t-26.5 48.5z" />
<glyph unicode="&#xad;" horiz-adv-x="643" d="M25 727v27.5t2 33.5q2 18 4 39l274 33q51 6 101.5 12.5t89.5 10.5t51 5l37 5q0 -2 2 -20.5t4 -43t4 -51t2 -43.5q0 -12 -5 -17t-21.5 -6t-47 0t-80.5 1h-227q-86 0 -138 2t-52 12z" />
<glyph unicode="&#xaf;" horiz-adv-x="634" d="M6 1257v28t2 34q2 18 4 39l275 33q51 6 101 12t89 10t51 5l37 5q0 -2 2 -20.5t4 -43t4.5 -51t2.5 -42.5q0 -12 -5.5 -17.5t-21.5 -6.5t-47 0t-80 1h-227q-86 0 -138.5 2t-52.5 12z" />
<glyph unicode="&#xb4;" horiz-adv-x="532" d="M18 1190q-2 0 10.5 14.5t34 39t50 56t57.5 64.5q68 78 158 176l139 -176q-98 -68 -176 -121q-33 -23 -64.5 -45t-56.5 -39.5t-32 -23.5l-23 -17q-2 0 -16.5 11.5t-32 24.5t-32 24.5t-16.5 11.5z" />
<glyph unicode="&#xb5;" horiz-adv-x="1155" d="M14 1034l8 -1q7 -1 28.5 -1h60.5h104q-2 -8 -3 -43t-1 -86q0 -57 1 -123.5t2 -127t2 -102.5t3 -50q6 -70 28.5 -125.5t62.5 -94t101.5 -60t145.5 -21.5q92 0 152.5 38.5t96.5 107.5t49 165t13 211q-6 92 -6 160.5t-4 148.5l227 -2v-31q0 -45 -1 -138t-4 -206.5t-5 -235.5 t-5 -221.5t-4 -163.5l-1 -63h-18q-16 0 -36 -1t-40 -1q-23 -2 -47 -2q-2 39 -6 76q-4 33 -7.5 71t-5.5 72q-82 -96 -180 -139t-199 -43q-86 0 -165.5 26.5t-149.5 75.5l4 -729h-156q-12 461 -20 826q-4 156 -8 304t-7.5 266t-6.5 189.5t-3 73.5z" />
<glyph unicode="&#xb7;" horiz-adv-x="358" d="M55 782q0 25 18.5 52.5t59.5 56.5q23 16 44.5 23.5t41.5 7.5q41 0 65.5 -29t24.5 -66q0 -41 -34.5 -76.5t-112.5 -35.5q-53 0 -80 19.5t-27 47.5z" />
<glyph unicode="&#xb8;" horiz-adv-x="495" d="M10 -350q10 -2 21 -2q10 -2 21 -2h28q25 0 50.5 2t47 10t34.5 21.5t13 35.5q0 31 -28.5 47.5t-64.5 23.5t-65.5 8t-31.5 1q8 74 16 133q6 51 11.5 92.5t9.5 45.5h4q2 0 5 1t7 1q12 0 31.5 -1t38.5 -4q23 -2 43 -4l6 -172h14q16 0 53 -5t74 -26.5t64.5 -64.5t27.5 -119 q0 -41 -20.5 -67.5t-52 -42t-72.5 -21.5t-84 -6q-39 0 -75 3t-64 7q-33 6 -62 13v92z" />
<glyph unicode="&#xbf;" horiz-adv-x="804" d="M6 293q0 66 20.5 120t53.5 99t76 78.5t86 60.5q102 61 233 94l-45 336l164 47l21 -540q-2 0 -40 -1t-92.5 -9.5t-117 -25t-115.5 -47t-89 -78.5t-36 -118q0 -47 13.5 -80t37 -52t54 -27.5t65.5 -8.5q66 0 136.5 20.5t129.5 45.5q70 29 140 63l45 -192q-59 -20 -127 -37 q-57 -14 -128 -25.5t-145 -11.5q-68 0 -129 13.5t-108 46t-75 88t-28 141.5zM359 1311q0 39 29.5 72.5t88.5 33.5q72 0 108 -27.5t36 -56.5q0 -27 -27 -53.5t-78 -46.5q-35 -14 -65 -15q-47 0 -69.5 29t-22.5 64z" />
<glyph unicode="&#xc0;" horiz-adv-x="1142" d="M78 33l16 57q15 57 38.5 151.5t54 216.5t63.5 251q-4 23 -8 58.5t-4 43.5q0 4 7 3t31 3q29 115 54.5 221.5t46 187.5t31.5 130l12 49q-2 0 27.5 -1t69.5 -2t80 -3t60 -2q16 4 17 4h2q-2 -2 12 -45t40 -115t59.5 -165t70.5 -193q25 2 45.5 4t36.5 4q18 2 31 4l4 -90 q2 -35 4 -62.5t2 -25.5h-16q-8 0 -19.5 -1t-25.5 -1q43 -117 82.5 -227.5t72.5 -196.5q37 -100 72 -189q-59 -33 -105 -55q-41 -20 -72.5 -36.5t-31.5 -14.5l-20 62q-19 63 -49.5 164.5t-69.5 228.5t-80 258q-74 -4 -149.5 -6.5t-143.5 -4.5l-250 -702q-25 10 -47 18 q-18 6 -33.5 12.5t-17.5 6.5zM344 1774l140 176q90 -98 157 -176q29 -33 56.5 -64.5t49 -56t33.5 -39.5l13 -14q-2 0 -16.5 -11.5t-32 -24.5t-31.5 -24.5t-16 -11.5l-15 12q-16 11 -40.5 28.5t-56.5 40t-65 44.5q-78 53 -176 121zM477 840l193 20l-86 279z" />
<glyph unicode="&#xc1;" horiz-adv-x="1142" d="M78 33l16 57q15 57 38.5 151.5t54 216.5t63.5 251q-4 23 -8 58.5t-4 43.5q0 4 7 3t31 3q29 115 54.5 221.5t46 187.5t31.5 130l12 49q-2 0 27.5 -1t69.5 -2t80 -3t60 -2q16 4 17 4h2q-2 -2 12 -45t40 -115t59.5 -165t70.5 -193q25 2 45.5 4t36.5 4q18 2 31 4l4 -90 q2 -35 4 -62.5t2 -25.5h-16q-8 0 -19.5 -1t-25.5 -1q43 -117 82.5 -227.5t72.5 -196.5q37 -100 72 -189q-59 -33 -105 -55q-41 -20 -72.5 -36.5t-31.5 -14.5l-20 62q-19 63 -49.5 164.5t-69.5 228.5t-80 258q-74 -4 -149.5 -6.5t-143.5 -4.5l-250 -702q-25 10 -47 18 q-18 6 -33.5 12.5t-17.5 6.5zM350 1600q-2 0 10.5 14.5t34 39t50 56t57.5 64.5q68 78 158 176l139 -176q-98 -68 -176 -121q-33 -23 -64.5 -45t-56.5 -39.5t-32 -23.5l-23 -17q-2 0 -16.5 11.5t-32 24.5t-32 24.5t-16.5 11.5zM477 840l193 20l-86 279z" />
<glyph unicode="&#xc2;" horiz-adv-x="1142" d="M78 33l16 57q15 57 38.5 151.5t54 216.5t63.5 251q-4 23 -8 58.5t-4 43.5q0 4 7 3t31 3q29 115 54.5 221.5t46 187.5t31.5 130l12 49q-2 0 27.5 -1t69.5 -2t80 -3t60 -2q16 4 17 4h2q-2 -2 12 -45t40 -115t59.5 -165t70.5 -193q25 2 45.5 4t36.5 4q18 2 31 4l4 -90 q2 -35 4 -62.5t2 -25.5h-16q-8 0 -19.5 -1t-25.5 -1q43 -117 82.5 -227.5t72.5 -196.5q37 -100 72 -189q-59 -33 -105 -55q-41 -20 -72.5 -36.5t-31.5 -14.5l-20 62q-19 63 -49.5 164.5t-69.5 228.5t-80 258q-74 -4 -149.5 -6.5t-143.5 -4.5l-250 -702q-25 10 -47 18 q-18 6 -33.5 12.5t-17.5 6.5zM264 1620q66 90 119 162q23 31 44 59.5t37.5 52t27.5 38.5l10 14h215l162 -358l-50 -21q-10 -4 -18 -6t-16 -6t-17 -6l-82 143q-31 53 -55.5 97t-24.5 46l-11 -21q-11 -22 -29.5 -54.5t-39 -71.5t-38 -71.5t-29.5 -55.5l-12 -23q-2 0 -33 12.5 t-66 28.5zM477 840l193 20l-86 279z" />
<glyph unicode="&#xc3;" horiz-adv-x="1142" d="M78 33l16 57q15 57 38.5 151.5t54 216.5t63.5 251q-4 23 -8 58.5t-4 43.5q0 4 7 3t31 3q29 115 54.5 221.5t46 187.5t31.5 130l12 49q-2 0 27.5 -1t69.5 -2t80 -3t60 -2q16 4 17 4h2q-2 -2 12 -45t40 -115t59.5 -165t70.5 -193q25 2 45.5 4t36.5 4q18 2 31 4l4 -90 q2 -35 4 -62.5t2 -25.5h-16q-8 0 -19.5 -1t-25.5 -1q43 -117 82.5 -227.5t72.5 -196.5q37 -100 72 -189q-59 -33 -105 -55q-41 -20 -72.5 -36.5t-31.5 -14.5l-20 62q-19 63 -49.5 164.5t-69.5 228.5t-80 258q-74 -4 -149.5 -6.5t-143.5 -4.5l-250 -702q-25 10 -47 18 q-18 6 -33.5 12.5t-17.5 6.5zM291 1631v2q0 8 17.5 49t43 85t57.5 80t62 36q33 0 65 -21.5t57.5 -48.5t47 -48.5t33.5 -21.5q12 2 27.5 25.5t30.5 52.5q16 33 30 72l105 -56q-25 -63 -49 -114q-23 -45 -50.5 -83t-58.5 -46q-23 -6 -41 -6q-33 0 -54.5 12t-39 27.5t-34.5 29 t-38 13.5q-25 -4 -40 -20.5t-25 -35.5q-10 -23 -17 -49q-29 18 -51 33q-20 12 -40.5 22.5t-31.5 10.5h-4h-2zM477 840l193 20l-86 279z" />
<glyph unicode="&#xc4;" horiz-adv-x="1142" d="M78 33l16 57q15 57 38.5 151.5t54 216.5t63.5 251q-4 23 -8 58.5t-4 43.5q0 4 7 3t31 3q29 115 54.5 221.5t46 187.5t31.5 130l12 49q-2 0 27.5 -1t69.5 -2t80 -3t60 -2q16 4 17 4h2q-2 -2 12 -45t40 -115t59.5 -165t70.5 -193q25 2 45.5 4t36.5 4q18 2 31 4l4 -90 q2 -35 4 -62.5t2 -25.5h-16q-8 0 -19.5 -1t-25.5 -1q43 -117 82.5 -227.5t72.5 -196.5q37 -100 72 -189q-59 -33 -105 -55q-41 -20 -72.5 -36.5t-31.5 -14.5l-20 62q-19 63 -49.5 164.5t-69.5 228.5t-80 258q-74 -4 -149.5 -6.5t-143.5 -4.5l-250 -702q-25 10 -47 18 q-18 6 -33.5 12.5t-17.5 6.5zM254 1686q0 25 18.5 52t59.5 56q23 16 44 23.5t42 7.5q41 0 65.5 -28.5t24.5 -65.5q0 -41 -35 -77t-112 -36q-53 0 -80 19.5t-27 48.5zM477 840l193 20l-86 279zM582 1686q0 25 18.5 52t59.5 56q23 16 44 23.5t42 7.5q41 0 65.5 -28.5 t24.5 -65.5q0 -41 -35 -77t-113 -36q-53 0 -79.5 19.5t-26.5 48.5z" />
<glyph unicode="&#xc5;" horiz-adv-x="1142" d="M78 33l16 57q15 57 38.5 151.5t54 216.5t63.5 251q-4 23 -8 58.5t-4 43.5q0 4 7 3t31 3q29 115 54.5 221.5t46 187.5t31.5 130l12 49q-2 0 27.5 -1t69.5 -2t80 -3t60 -2q16 4 17 4h2q-2 -2 12 -45t40 -115t59.5 -165t70.5 -193q25 2 45.5 4t36.5 4q18 2 31 4l4 -90 q2 -35 4 -62.5t2 -25.5h-16q-8 0 -19.5 -1t-25.5 -1q43 -117 82.5 -227.5t72.5 -196.5q37 -100 72 -189q-59 -33 -105 -55q-41 -20 -72.5 -36.5t-31.5 -14.5l-20 62q-19 63 -49.5 164.5t-69.5 228.5t-80 258q-74 -4 -149.5 -6.5t-143.5 -4.5l-250 -702q-25 10 -47 18 q-18 6 -33.5 12.5t-17.5 6.5zM244 1665q0 51 41 111t125 119q51 35 96 50t86 15q43 0 79 -16t61.5 -44t39 -63.5t13.5 -74.5q0 -43 -17.5 -85t-56.5 -76t-98.5 -54.5t-141.5 -20.5q-113 0 -170 40t-57 99zM367 1686q0 -68 115 -68q74 0 106.5 37t32.5 76q0 37 -24.5 65.5 t-65.5 28.5q-20 0 -41.5 -7.5t-44.5 -23.5q-41 -29 -59.5 -56.5t-18.5 -51.5zM477 840l193 20l-86 279z" />
<glyph unicode="&#xc6;" horiz-adv-x="1351" d="M78 33l16 57q15 57 38.5 152.5t54 217.5t63.5 249q-4 23 -8 58.5t-4 43.5v2h10h11t17 2q29 115 54.5 221.5t46 188.5t31.5 131l12 49q-2 0 38 -1t88 -4t88 -6t38 -5q45 4 107.5 10t129 12t131 12.5t116.5 11.5t85 8t35 3q0 -2 1 -17.5t2 -37t2 -46t1 -45.5q0 -18 2 -27 t-4 -12.5t-23.5 -3.5h-54.5h-96t-116.5 1.5t-127 2.5t-123.5 3l27 -406q90 8 174 15.5t150 13.5q78 8 145 12l4 -90q2 -35 4 -62.5t2 -25.5h-8q-16 0 -59 -1t-106.5 -3t-139.5 -4t-156 -4l35 -510q8 2 32.5 3t59.5 2t78 2t86 3q100 2 223 6q-2 0 -2 -34t-2 -75 q-2 -47 -2 -106h-674v16q0 27 -1 95.5t-3 162t-3 204t-3 224.5l-174 -6l-250 -700q-25 10 -47 18q-18 6 -33.5 12.5t-17.5 6.5zM475 834l123 10v319z" />
<glyph unicode="&#xc7;" horiz-adv-x="1150" d="M4 719q0 145 33 272t100.5 220.5t172 147.5t249.5 54q70 0 140.5 -12t137 -41t126 -77t106.5 -122l-125 -98q-63 86 -150 128t-180 42q-78 0 -152.5 -32t-132 -94.5t-92 -156.5t-34.5 -219q0 -172 42 -282.5t108.5 -173t146.5 -86t155 -23.5q131 0 215 64.5t129 172.5 l119 -90q-76 -147 -203 -224t-270 -87l4 -115h15q16 0 53 -5t73.5 -26.5t64.5 -64.5t28 -119q0 -41 -20.5 -67.5t-52.5 -42t-73 -21.5t-84 -6q-39 0 -74.5 3t-64.5 7q-33 6 -61 13v92q10 -2 20 -2q10 -2 21.5 -2h27.5q25 0 50.5 2t47 10t35 21.5t13.5 35.5q0 31 -29 47.5 t-64.5 23.5t-65.5 8t-32 1q4 41 10 80q4 35 8.5 72t8.5 65q-98 18 -188.5 71.5t-160 140.5t-110.5 211t-41 284z" />
<glyph unicode="&#xc8;" horiz-adv-x="868" d="M18 1360q207 18 371 33q70 6 137.5 12t120.5 10t86 7t35 3q0 -2 1 -17t2 -36.5t2 -46.5t1 -45q0 -18 1 -27.5t-5 -12.5t-25.5 -3h-62.5h-110.5t-133 1t-140.5 2t-128 3l27 -405q57 8 137 17t152.5 17.5t125 14.5t54.5 6q0 -2 2 -20.5t4 -43t4 -51t2 -43.5 q0 -16 -11.5 -20t-43.5 -4q-20 0 -51 1t-74 1h-293l37 -514q8 2 36.5 3t71.5 2t94.5 2t104.5 3q123 2 274 6q-2 0 -2 -34t-2 -75q-2 -47 -2 -106h-776v20q0 33 -1 107t-2 174t-3 217t-4 234.5t-4 226t-4.5 193.5t-3.5 135.5t-1 52.5zM207 1774l140 176q90 -98 157 -176 q29 -33 56.5 -64.5t49 -56t33.5 -39.5l13 -14q-2 0 -16.5 -11.5t-32 -24.5t-31.5 -24.5t-16 -11.5l-15 12q-16 11 -40.5 28.5t-56.5 40t-65 44.5q-78 53 -176 121z" />
<glyph unicode="&#xc9;" horiz-adv-x="868" d="M18 1360q207 18 371 33q70 6 137.5 12t120.5 10t86 7t35 3q0 -2 1 -17t2 -36.5t2 -46.5t1 -45q0 -18 1 -27.5t-5 -12.5t-25.5 -3h-62.5h-110.5t-133 1t-140.5 2t-128 3l27 -405q57 8 137 17t152.5 17.5t125 14.5t54.5 6q0 -2 2 -20.5t4 -43t4 -51t2 -43.5 q0 -16 -11.5 -20t-43.5 -4q-20 0 -51 1t-74 1h-293l37 -514q8 2 36.5 3t71.5 2t94.5 2t104.5 3q123 2 274 6q-2 0 -2 -34t-2 -75q-2 -47 -2 -106h-776v20q0 33 -1 107t-2 174t-3 217t-4 234.5t-4 226t-4.5 193.5t-3.5 135.5t-1 52.5zM213 1600q-2 0 10.5 14.5t34 39t50 56 t57.5 64.5q68 78 158 176l139 -176q-98 -68 -176 -121q-33 -23 -64.5 -45t-56.5 -39.5t-32 -23.5l-23 -17q-2 0 -16.5 11.5t-32 24.5t-32 24.5t-16.5 11.5z" />
<glyph unicode="&#xca;" horiz-adv-x="868" d="M18 1360q207 18 371 33q70 6 137.5 12t120.5 10t86 7t35 3q0 -2 1 -17t2 -36.5t2 -46.5t1 -45q0 -18 1 -27.5t-5 -12.5t-25.5 -3h-62.5h-110.5t-133 1t-140.5 2t-128 3l27 -405q57 8 137 17t152.5 17.5t125 14.5t54.5 6q0 -2 2 -20.5t4 -43t4 -51t2 -43.5 q0 -16 -11.5 -20t-43.5 -4q-20 0 -51 1t-74 1h-293l37 -514q8 2 36.5 3t71.5 2t94.5 2t104.5 3q123 2 274 6q-2 0 -2 -34t-2 -75q-2 -47 -2 -106h-776v20q0 33 -1 107t-2 174t-3 217t-4 234.5t-4 226t-4.5 193.5t-3.5 135.5t-1 52.5zM127 1620q66 90 119 162q23 31 44 59.5 t37.5 52t27.5 38.5l10 14h215l162 -358l-50 -21q-10 -4 -18 -6t-16 -6t-17 -6l-82 143q-31 53 -55.5 97t-24.5 46l-11 -21q-11 -22 -29.5 -54.5t-39 -71.5t-38 -71.5t-29.5 -55.5l-12 -23q-2 0 -33 12.5t-66 28.5z" />
<glyph unicode="&#xcb;" horiz-adv-x="868" d="M18 1360q207 18 371 33q70 6 137.5 12t120.5 10t86 7t35 3q0 -2 1 -17t2 -36.5t2 -46.5t1 -45q0 -18 1 -27.5t-5 -12.5t-25.5 -3h-62.5h-110.5t-133 1t-140.5 2t-128 3l27 -405q57 8 137 17t152.5 17.5t125 14.5t54.5 6q0 -2 2 -20.5t4 -43t4 -51t2 -43.5 q0 -16 -11.5 -20t-43.5 -4q-20 0 -51 1t-74 1h-293l37 -514q8 2 36.5 3t71.5 2t94.5 2t104.5 3q123 2 274 6q-2 0 -2 -34t-2 -75q-2 -47 -2 -106h-776v20q0 33 -1 107t-2 174t-3 217t-4 234.5t-4 226t-4.5 193.5t-3.5 135.5t-1 52.5zM117 1686q0 25 18.5 52t59.5 56 q23 16 44 23.5t42 7.5q41 0 65.5 -28.5t24.5 -65.5q0 -41 -35 -77t-112 -36q-53 0 -80 19.5t-27 48.5zM445 1686q0 25 18.5 52t59.5 56q23 16 44 23.5t42 7.5q41 0 65.5 -28.5t24.5 -65.5q0 -41 -35 -77t-113 -36q-53 0 -79.5 19.5t-26.5 48.5z" />
<glyph unicode="&#xcc;" horiz-adv-x="600" d="M4 1280v27.5t2 33.5q2 18 4 39q147 18 262 31q49 6 96.5 11t85.5 9.5t62.5 6.5t26.5 2q0 -2 2 -20.5t4 -43t4 -51.5t2 -43q0 -10 -1 -15t-6 -7.5t-18.5 -1t-37.5 1.5h-89.5t-107.5 2q4 -72 10 -164t13.5 -195.5t14.5 -210t14 -208t14.5 -189.5t11.5 -154l180 -22 q0 -20 2 -39q0 -16 1 -33.5t1 -28.5q0 -10 -51 -12t-131 -2h-219q-49 0 -78 -1t-45.5 0t-21.5 6t-5 18q0 16 2 42.5t5 51t5 43t2 20.5q18 -2 41 -4q20 -2 46 -5t57 -7q-2 70 -4 159t-4 188t-4 202.5t-4.5 202t-4.5 187.5t-2 157h-70.5t-42 1t-19.5 4t-5 11zM71 1774l140 176 q90 -98 157 -176q29 -33 56.5 -64.5t49 -56t33.5 -39.5l13 -14q-2 0 -16.5 -11.5t-32 -24.5t-31.5 -24.5t-16 -11.5l-15 12q-16 11 -40.5 28.5t-56.5 40t-65 44.5q-78 53 -176 121z" />
<glyph unicode="&#xcd;" horiz-adv-x="600" d="M4 1280v27.5t2 33.5q2 18 4 39q147 18 262 31q49 6 96.5 11t85.5 9.5t62.5 6.5t26.5 2q0 -2 2 -20.5t4 -43t4 -51.5t2 -43q0 -10 -1 -15t-6 -7.5t-18.5 -1t-37.5 1.5h-89.5t-107.5 2q4 -72 10 -164t13.5 -195.5t14.5 -210t14 -208t14.5 -189.5t11.5 -154l180 -22 q0 -20 2 -39q0 -16 1 -33.5t1 -28.5q0 -10 -51 -12t-131 -2h-219q-49 0 -78 -1t-45.5 0t-21.5 6t-5 18q0 16 2 42.5t5 51t5 43t2 20.5q18 -2 41 -4q20 -2 46 -5t57 -7q-2 70 -4 159t-4 188t-4 202.5t-4.5 202t-4.5 187.5t-2 157h-70.5t-42 1t-19.5 4t-5 11zM77 1600 q-2 0 10.5 14.5t34 39t50 56t57.5 64.5q68 78 158 176l139 -176q-98 -68 -176 -121q-33 -23 -64.5 -45t-56.5 -39.5t-32 -23.5l-23 -17q-2 0 -16.5 11.5t-32 24.5t-32 24.5t-16.5 11.5z" />
<glyph unicode="&#xce;" horiz-adv-x="645" d="M-6 1620q66 90 119 162q23 31 44 59.5t37.5 52t27.5 38.5l10 14h215l162 -358l-50 -21q-10 -4 -18 -6t-16 -6t-17 -6l-82 143q-31 53 -55.5 97t-24.5 46l-11 -21q-11 -22 -29.5 -54.5t-39 -71.5t-38 -71.5t-29.5 -55.5l-12 -23q-2 0 -33 12.5t-66 28.5zM65 1280v27.5 t2 33.5q2 18 4 39q147 18 262 31q49 6 96.5 11t85.5 9.5t62.5 6.5t26.5 2q0 -2 2 -20.5t4 -43t4 -51.5t2 -43q0 -10 -1 -15t-6 -7.5t-18.5 -1t-37.5 1.5h-89.5t-107.5 2q4 -72 10 -164t13.5 -195.5t14.5 -210t14 -208t14.5 -189.5t11.5 -154l180 -22q0 -20 2 -39 q0 -16 1 -33.5t1 -28.5q0 -10 -51 -12t-131 -2h-219q-49 0 -78 -1t-45.5 0t-21.5 6t-5 18q0 16 2 42.5t5 51t5 43t2 20.5q18 -2 41 -4q20 -2 46 -5t57 -7q-2 70 -4 159t-4 188t-4 202.5t-4.5 202t-4.5 187.5t-2 157h-70.5t-42 1t-19.5 4t-5 11z" />
<glyph unicode="&#xcf;" horiz-adv-x="600" d="M-16 1686q0 25 18.5 52t59.5 56q23 16 44 23.5t42 7.5q41 0 65.5 -28.5t24.5 -65.5q0 -41 -35 -77t-112 -36q-53 0 -80 19.5t-27 48.5zM4 1280v27.5t2 33.5q2 18 4 39q147 18 262 31q49 6 96.5 11t85.5 9.5t62.5 6.5t26.5 2q0 -2 2 -20.5t4 -43t4 -51.5t2 -43 q0 -10 -1 -15t-6 -7.5t-18.5 -1t-37.5 1.5h-89.5t-107.5 2q4 -72 10 -164t13.5 -195.5t14.5 -210t14 -208t14.5 -189.5t11.5 -154l180 -22q0 -20 2 -39q0 -16 1 -33.5t1 -28.5q0 -10 -51 -12t-131 -2h-219q-49 0 -78 -1t-45.5 0t-21.5 6t-5 18q0 16 2 42.5t5 51t5 43t2 20.5 q18 -2 41 -4q20 -2 46 -5t57 -7q-2 70 -4 159t-4 188t-4 202.5t-4.5 202t-4.5 187.5t-2 157h-70.5t-42 1t-19.5 4t-5 11zM312 1686q0 25 18.5 52t59.5 56q23 16 44 23.5t42 7.5q41 0 65.5 -28.5t24.5 -65.5q0 -41 -35 -77t-113 -36q-53 0 -79.5 19.5t-26.5 48.5z" />
<glyph unicode="&#xd0;" horiz-adv-x="1105" d="M-4 705v27.5t2 33.5q2 18 4 39q12 0 27 2q12 2 30.5 4t40.5 6q-2 92 -4 179t-3 162t-2 134.5t-1 93.5q0 41 2 41q2 -2 19 -2h34.5t40.5 2q23 2 47 5l3 -48q86 29 186 29q70 0 144.5 -8t145 -33.5t133 -72t109.5 -123t75 -188t28 -267.5q0 -170 -51.5 -303t-134.5 -225.5 t-188 -141.5t-216 -49q-72 0 -135 18l2 -26h-109q-20 0 -38.5 -1t-34.5 -1h-33q-2 102 -6 217q-4 98 -6.5 222t-4.5 259q-68 2 -87 0t-19 15zM252 1159l22 -319q51 6 100.5 11t89.5 10t64.5 7t26.5 2q0 -2 2 -20.5t4 -43t4 -51t2 -42.5t-23.5 -21.5t-74.5 -5.5q-35 0 -80 1 t-104 1l32 -481q47 -23 98.5 -32t102.5 -9q100 0 175 50t124 133t72.5 187.5t23.5 213.5q0 137 -37.5 230t-99 149.5t-140.5 80t-161 23.5q-121 0 -223 -74z" />
<glyph unicode="&#xd1;" horiz-adv-x="983" d="M4 8q2 104 6 221q4 100 8.5 226.5t8.5 259.5q10 309 24 706l197 2q143 -328 256 -585q49 -111 95 -215.5t83 -186.5t59.5 -132t24.5 -50l-82 1169h172q29 0 42 2t17.5 -1t3.5 -17t-1 -47v-137t-1.5 -191.5t-2.5 -222.5t-2 -230.5t-2 -217t-2 -182.5t-1 -125v-46l-188 4 l-549 1125l59 -1137q-63 2 -112 4q-43 2 -78 2t-35 2zM143 1631v2q0 8 17.5 49t43 85t57.5 80t62 36q33 0 65 -21.5t57.5 -48.5t47 -48.5t33.5 -21.5q12 2 27.5 25.5t30.5 52.5q16 33 30 72l105 -56q-25 -63 -49 -114q-23 -45 -50.5 -83t-58.5 -46q-23 -6 -41 -6 q-33 0 -54.5 12t-39 27.5t-34.5 29t-38 13.5q-25 -4 -40 -20.5t-25 -35.5q-10 -23 -17 -49q-29 18 -51 33q-20 12 -40.5 22.5t-31.5 10.5h-4h-2z" />
<glyph unicode="&#xd2;" horiz-adv-x="1230" d="M0 662q0 154 27.5 268t75 198t109.5 138.5t133 87t144.5 46t145.5 13.5q143 0 248.5 -54t173 -147.5t100.5 -220.5t33 -274q0 -180 -52.5 -314.5t-138.5 -223.5t-195.5 -133t-221.5 -44q-111 0 -215.5 41t-185.5 124t-131 207t-50 288zM143 688q0 -111 23.5 -206 t73 -165.5t123.5 -110.5t176 -40q76 0 155.5 23.5t145 87t108.5 173t43 281.5q0 127 -35.5 221.5t-95 156.5t-134.5 93t-155 31t-157.5 -35t-137 -102.5t-96.5 -170t-37 -237.5zM387 1774l140 176q90 -98 157 -176q29 -33 56.5 -64.5t49 -56t33.5 -39.5l13 -14 q-2 0 -16.5 -11.5t-32 -24.5t-31.5 -24.5t-16 -11.5l-15 12q-16 11 -40.5 28.5t-56.5 40t-65 44.5q-78 53 -176 121z" />
<glyph unicode="&#xd3;" horiz-adv-x="1230" d="M0 662q0 154 27.5 268t75 198t109.5 138.5t133 87t144.5 46t145.5 13.5q143 0 248.5 -54t173 -147.5t100.5 -220.5t33 -274q0 -180 -52.5 -314.5t-138.5 -223.5t-195.5 -133t-221.5 -44q-111 0 -215.5 41t-185.5 124t-131 207t-50 288zM143 688q0 -111 23.5 -206 t73 -165.5t123.5 -110.5t176 -40q76 0 155.5 23.5t145 87t108.5 173t43 281.5q0 127 -35.5 221.5t-95 156.5t-134.5 93t-155 31t-157.5 -35t-137 -102.5t-96.5 -170t-37 -237.5zM393 1600q-2 0 10.5 14.5t34 39t50 56t57.5 64.5q68 78 158 176l139 -176q-98 -68 -176 -121 q-33 -23 -64.5 -45t-56.5 -39.5t-32 -23.5l-23 -17q-2 0 -16.5 11.5t-32 24.5t-32 24.5t-16.5 11.5z" />
<glyph unicode="&#xd4;" horiz-adv-x="1230" d="M0 662q0 154 27.5 268t75 198t109.5 138.5t133 87t144.5 46t145.5 13.5q143 0 248.5 -54t173 -147.5t100.5 -220.5t33 -274q0 -180 -52.5 -314.5t-138.5 -223.5t-195.5 -133t-221.5 -44q-111 0 -215.5 41t-185.5 124t-131 207t-50 288zM143 688q0 -111 23.5 -206 t73 -165.5t123.5 -110.5t176 -40q76 0 155.5 23.5t145 87t108.5 173t43 281.5q0 127 -35.5 221.5t-95 156.5t-134.5 93t-155 31t-157.5 -35t-137 -102.5t-96.5 -170t-37 -237.5zM307 1620q66 90 119 162q23 31 44 59.5t37.5 52t27.5 38.5l10 14h215l162 -358l-50 -21 q-10 -4 -18 -6t-16 -6t-17 -6l-82 143q-31 53 -55.5 97t-24.5 46l-11 -21q-11 -22 -29.5 -54.5t-39 -71.5t-38 -71.5t-29.5 -55.5l-12 -23q-2 0 -33 12.5t-66 28.5z" />
<glyph unicode="&#xd5;" horiz-adv-x="1230" d="M0 662q0 154 27.5 268t75 198t109.5 138.5t133 87t144.5 46t145.5 13.5q143 0 248.5 -54t173 -147.5t100.5 -220.5t33 -274q0 -180 -52.5 -314.5t-138.5 -223.5t-195.5 -133t-221.5 -44q-111 0 -215.5 41t-185.5 124t-131 207t-50 288zM143 688q0 -111 23.5 -206 t73 -165.5t123.5 -110.5t176 -40q76 0 155.5 23.5t145 87t108.5 173t43 281.5q0 127 -35.5 221.5t-95 156.5t-134.5 93t-155 31t-157.5 -35t-137 -102.5t-96.5 -170t-37 -237.5zM336 1631v2q0 8 17.5 49t43 85t57.5 80t62 36q33 0 65 -21.5t57.5 -48.5t47 -48.5t33.5 -21.5 q12 2 27.5 25.5t30.5 52.5q16 33 30 72l105 -56q-25 -63 -49 -114q-23 -45 -50.5 -83t-58.5 -46q-23 -6 -41 -6q-33 0 -54.5 12t-39 27.5t-34.5 29t-38 13.5q-25 -4 -40 -20.5t-25 -35.5q-10 -23 -17 -49q-29 18 -51 33q-20 12 -40.5 22.5t-31.5 10.5h-4h-2z" />
<glyph unicode="&#xd6;" horiz-adv-x="1230" d="M0 662q0 154 27.5 268t75 198t109.5 138.5t133 87t144.5 46t145.5 13.5q143 0 248.5 -54t173 -147.5t100.5 -220.5t33 -274q0 -180 -52.5 -314.5t-138.5 -223.5t-195.5 -133t-221.5 -44q-111 0 -215.5 41t-185.5 124t-131 207t-50 288zM143 688q0 -111 23.5 -206 t73 -165.5t123.5 -110.5t176 -40q76 0 155.5 23.5t145 87t108.5 173t43 281.5q0 127 -35.5 221.5t-95 156.5t-134.5 93t-155 31t-157.5 -35t-137 -102.5t-96.5 -170t-37 -237.5zM297 1686q0 25 18.5 52t59.5 56q23 16 44 23.5t42 7.5q41 0 65.5 -28.5t24.5 -65.5 q0 -41 -35 -77t-112 -36q-53 0 -80 19.5t-27 48.5zM625 1686q0 25 18.5 52t59.5 56q23 16 44 23.5t42 7.5q41 0 65.5 -28.5t24.5 -65.5q0 -41 -35 -77t-113 -36q-53 0 -79.5 19.5t-26.5 48.5z" />
<glyph unicode="&#xd7;" horiz-adv-x="796" d="M12 518q27 35 64 78q31 37 74 89t96 118q-41 39 -77 72.5t-62.5 59.5t-40.5 41l-15 15l37 49q17 22 37 47l17 -14q16 -14 44.5 -38.5t67.5 -56.5t82 -69q43 51 89 104.5t97 108.5l160 -161l-188 -183q51 -43 98 -83t84 -68q43 -37 80 -66q-33 -39 -60 -67 q-23 -25 -42 -46.5t-17 -19.5q-37 35 -78 74q-35 35 -81 79t-95 91q-51 -49 -99 -94.5t-86 -81t-60 -56.5l-23 -20q-2 4 -18.5 20.5t-35.5 32.5z" />
<glyph unicode="&#xd8;" horiz-adv-x="1230" d="M0 659q0 229 59.5 376t151.5 231t204.5 115.5t219.5 31.5q162 0 278 -70q47 76 76 121t29 47q4 0 21.5 -11t37.5 -25q23 -16 53 -35q-12 -23 -28 -51q-14 -25 -34.5 -61t-43.5 -77q86 -96 126 -233t40 -301q0 -182 -53.5 -316.5t-139.5 -223.5t-196.5 -132t-225.5 -43 q-123 0 -231 51q-25 -41 -43 -73.5t-33 -57.5q-16 -29 -26 -51l-27 25q-27 24 -58.5 52.5t-57 53.5t-23.5 25q12 18 26 41q12 20 30 46.5t40 61.5q-78 82 -125 203t-47 280zM143 664q4 -111 31 -204t78 -161q57 92 127 200.5t142.5 223.5t144 228.5t133.5 211.5 q-51 35 -109.5 52.5t-118.5 17.5q-80 0 -157.5 -35t-137 -102.5t-96.5 -170t-37 -237.5v-24zM418 182q55 -16 121 -16q76 0 155.5 23.5t145 86t108.5 172t43 281.5q0 98 -22.5 178t-61.5 142z" />
<glyph unicode="&#xd9;" horiz-adv-x="1134" d="M37 492v72.5t1 163.5t1 211t1 214t2 174t3 88l164 -2q-2 -6 -3 -55t-1 -125q0 -98 1 -221t2 -234.5t3 -190.5t2 -87q10 -150 88 -225.5t246 -75.5q94 0 154.5 36.5t96.5 105.5t50 165t14 215v86t-1 123.5t-2 141.5t-2 139.5t-2 119.5t-3 80l227 -2v-43q0 -45 -1 -129 t-2 -190.5t-3 -227.5t-4 -240.5t-4 -230t-3 -194.5t-2 -134l-1 -51h-19q-16 0 -35.5 -1t-39.5 -1q-23 -2 -47 -2q0 18 -3 41q-2 20 -4 48t-4 63q-66 -55 -151.5 -86t-198.5 -31q-117 0 -212 31.5t-163.5 94t-106.5 154t-38 212.5zM340 1774l140 176q90 -98 157 -176 q29 -33 56.5 -64.5t49 -56t33.5 -39.5l13 -14q-2 0 -16.5 -11.5t-32 -24.5t-31.5 -24.5t-16 -11.5l-15 12q-16 11 -40.5 28.5t-56.5 40t-65 44.5q-78 53 -176 121z" />
<glyph unicode="&#xda;" horiz-adv-x="1134" d="M37 492v72.5t1 163.5t1 211t1 214t2 174t3 88l164 -2q-2 -6 -3 -55t-1 -125q0 -98 1 -221t2 -234.5t3 -190.5t2 -87q10 -150 88 -225.5t246 -75.5q94 0 154.5 36.5t96.5 105.5t50 165t14 215v86t-1 123.5t-2 141.5t-2 139.5t-2 119.5t-3 80l227 -2v-43q0 -45 -1 -129 t-2 -190.5t-3 -227.5t-4 -240.5t-4 -230t-3 -194.5t-2 -134l-1 -51h-19q-16 0 -35.5 -1t-39.5 -1q-23 -2 -47 -2q0 18 -3 41q-2 20 -4 48t-4 63q-66 -55 -151.5 -86t-198.5 -31q-117 0 -212 31.5t-163.5 94t-106.5 154t-38 212.5zM346 1600q-2 0 10.5 14.5t34 39t50 56 t57.5 64.5q68 78 158 176l139 -176q-98 -68 -176 -121q-33 -23 -64.5 -45t-56.5 -39.5t-32 -23.5l-23 -17q-2 0 -16.5 11.5t-32 24.5t-32 24.5t-16.5 11.5z" />
<glyph unicode="&#xdb;" horiz-adv-x="1134" d="M37 492v72.5t1 163.5t1 211t1 214t2 174t3 88l164 -2q-2 -6 -3 -55t-1 -125q0 -98 1 -221t2 -234.5t3 -190.5t2 -87q10 -150 88 -225.5t246 -75.5q94 0 154.5 36.5t96.5 105.5t50 165t14 215v86t-1 123.5t-2 141.5t-2 139.5t-2 119.5t-3 80l227 -2v-43q0 -45 -1 -129 t-2 -190.5t-3 -227.5t-4 -240.5t-4 -230t-3 -194.5t-2 -134l-1 -51h-19q-16 0 -35.5 -1t-39.5 -1q-23 -2 -47 -2q0 18 -3 41q-2 20 -4 48t-4 63q-66 -55 -151.5 -86t-198.5 -31q-117 0 -212 31.5t-163.5 94t-106.5 154t-38 212.5zM260 1620q66 90 119 162q23 31 44 59.5 t37.5 52t27.5 38.5l10 14h215l162 -358l-50 -21q-10 -4 -18 -6t-16 -6t-17 -6l-82 143q-31 53 -55.5 97t-24.5 46l-11 -21q-11 -22 -29.5 -54.5t-39 -71.5t-38 -71.5t-29.5 -55.5l-12 -23q-2 0 -33 12.5t-66 28.5z" />
<glyph unicode="&#xdc;" horiz-adv-x="1134" d="M37 492v72.5t1 163.5t1 211t1 214t2 174t3 88l164 -2q-2 -6 -3 -55t-1 -125q0 -98 1 -221t2 -234.5t3 -190.5t2 -87q10 -150 88 -225.5t246 -75.5q94 0 154.5 36.5t96.5 105.5t50 165t14 215v86t-1 123.5t-2 141.5t-2 139.5t-2 119.5t-3 80l227 -2v-43q0 -45 -1 -129 t-2 -190.5t-3 -227.5t-4 -240.5t-4 -230t-3 -194.5t-2 -134l-1 -51h-19q-16 0 -35.5 -1t-39.5 -1q-23 -2 -47 -2q0 18 -3 41q-2 20 -4 48t-4 63q-66 -55 -151.5 -86t-198.5 -31q-117 0 -212 31.5t-163.5 94t-106.5 154t-38 212.5zM250 1686q0 25 18.5 52t59.5 56 q23 16 44 23.5t42 7.5q41 0 65.5 -28.5t24.5 -65.5q0 -41 -35 -77t-112 -36q-53 0 -80 19.5t-27 48.5zM578 1686q0 25 18.5 52t59.5 56q23 16 44 23.5t42 7.5q41 0 65.5 -28.5t24.5 -65.5q0 -41 -35 -77t-113 -36q-53 0 -79.5 19.5t-26.5 48.5z" />
<glyph unicode="&#xdd;" horiz-adv-x="1148" d="M2 1274q-4 0 24.5 23.5t65.5 51t70 51.5l33 23q78 -115 155 -227q66 -96 139.5 -202.5t133.5 -192.5q78 123 149.5 235.5t125.5 197.5t86 136t30 51q4 0 21.5 -11t37.5 -26q23 -16 53 -34q-63 -111 -131 -232q-59 -104 -131.5 -234t-146.5 -263l59 -619h-108 q-20 0 -39 -1t-35 -1h-33v227v97.5v99.5t1 94t1 82zM352 1600q-2 0 10.5 14.5t34 39t50 56t57.5 64.5q68 78 158 176l139 -176q-98 -68 -176 -121q-33 -23 -64.5 -45t-56.5 -39.5t-32 -23.5l-23 -17q-2 0 -16.5 11.5t-32 24.5t-32 24.5t-16.5 11.5z" />
<glyph unicode="&#xde;" horiz-adv-x="880" d="M29 1331q0 29 1 54.5t1 46.5l233 -15l-22 -323q45 10 96 16t104 6q68 0 133.5 -15.5t117.5 -54t85 -105.5t33 -169q0 -111 -50 -186.5t-134 -127.5t-196 -87t-236 -62l-19 -313l-129 10v68q0 72 -1 172t-3 213.5t-5 234.5t-5 237t-3 219t-1 181zM205 481q53 10 130 33 t147.5 58.5t119.5 87t49 118.5q0 55 -23.5 91t-60.5 57.5t-84 30t-96 8.5q-39 0 -79 -4.5t-75 -10.5q-6 -115 -13 -233.5t-15 -235.5z" />
<glyph unicode="&#xdf;" horiz-adv-x="974" d="M35 6q2 0 4 2l-2 -4v-2v2q-2 0 -2 2zM35 586q0 100 2 199.5t7 184.5t14.5 149.5t23.5 97.5q25 57 74 101t109.5 71.5t125 42t123.5 14.5q119 0 164 -48t45 -120q0 -76 -41 -162t-89 -169t-89 -153.5t-41 -115.5q0 -20 32.5 -33.5t82 -32t105.5 -45t105.5 -70.5t82 -113 t32.5 -169q0 -80 -28.5 -131t-76.5 -80t-108.5 -40t-122.5 -11q-57 0 -111.5 6t-95.5 14q-49 8 -92 23l11 139q39 -10 79 -18q35 -6 80 -11.5t90 -5.5q74 0 129.5 22.5t55.5 88.5q0 61 -32 105t-79 78t-102.5 61.5t-102.5 55.5t-77.5 59.5t-28.5 74.5q0 57 37 134t81 155 t80.5 149.5t36.5 116.5q0 39 -32.5 55.5t-61.5 16.5q-31 0 -62.5 -12.5t-61 -34t-54.5 -50t-41 -59.5q-8 -16 -14 -54t-9.5 -92.5t-4.5 -121t-1 -139.5q0 -123 2 -248t7 -230q4 -121 10 -235q-33 2 -62 6l-50 4t-40 2h-12q0 6 1 19.5t1 35.5q0 37 -1 93.5t-2 125t-2 146.5 t-1 158z" />
<glyph unicode="&#xe0;" d="M-2 487q0 164 55.5 268.5t138 165t182 84t185.5 23.5q150 0 260 -70l-6 123l227 -2q0 -2 -1 -50t-2 -126t-2 -178t-3 -203.5t-3 -203t-3 -177.5t-3 -125t-3 -47h-19q-16 0 -35.5 -1t-39.5 -1q-23 -2 -47 -2q0 18 -2 41q-2 20 -4.5 47t-4.5 62q-66 -53 -151.5 -83 t-198.5 -30q-115 0 -211 30.5t-164.5 92t-106.5 153t-38 209.5zM143 500q0 -66 23.5 -127.5t70 -109.5t116 -77.5t161.5 -29.5q76 0 134.5 32.5t97 86t58 121t19.5 136.5q0 68 -18.5 128.5t-55 107.5t-92 74.5t-129.5 27.5q-96 -2 -167.5 -34.5t-119.5 -85t-73 -118 t-25 -132.5zM325 1364l140 176q90 -98 157 -176q29 -33 56.5 -64.5t49 -56t33.5 -39.5l13 -14q-2 0 -16.5 -11.5t-32 -24.5t-31.5 -24.5t-16 -11.5l-15 12q-16 11 -40.5 28.5t-56.5 40t-65 44.5q-78 53 -176 121z" />
<glyph unicode="&#xe1;" d="M-2 487q0 164 55.5 268.5t138 165t182 84t185.5 23.5q150 0 260 -70l-6 123l227 -2q0 -2 -1 -50t-2 -126t-2 -178t-3 -203.5t-3 -203t-3 -177.5t-3 -125t-3 -47h-19q-16 0 -35.5 -1t-39.5 -1q-23 -2 -47 -2q0 18 -2 41q-2 20 -4.5 47t-4.5 62q-66 -53 -151.5 -83 t-198.5 -30q-115 0 -211 30.5t-164.5 92t-106.5 153t-38 209.5zM143 500q0 -66 23.5 -127.5t70 -109.5t116 -77.5t161.5 -29.5q76 0 134.5 32.5t97 86t58 121t19.5 136.5q0 68 -18.5 128.5t-55 107.5t-92 74.5t-129.5 27.5q-96 -2 -167.5 -34.5t-119.5 -85t-73 -118 t-25 -132.5zM331 1190q-2 0 10.5 14.5t34 39t50 56t57.5 64.5q68 78 158 176l139 -176q-98 -68 -176 -121q-33 -23 -64.5 -45t-56.5 -39.5t-32 -23.5l-23 -17q-2 0 -16.5 11.5t-32 24.5t-32 24.5t-16.5 11.5z" />
<glyph unicode="&#xe2;" d="M-2 487q0 164 55.5 268.5t138 165t182 84t185.5 23.5q150 0 260 -70l-6 123l227 -2q0 -2 -1 -50t-2 -126t-2 -178t-3 -203.5t-3 -203t-3 -177.5t-3 -125t-3 -47h-19q-16 0 -35.5 -1t-39.5 -1q-23 -2 -47 -2q0 18 -2 41q-2 20 -4.5 47t-4.5 62q-66 -53 -151.5 -83 t-198.5 -30q-115 0 -211 30.5t-164.5 92t-106.5 153t-38 209.5zM143 500q0 -66 23.5 -127.5t70 -109.5t116 -77.5t161.5 -29.5q76 0 134.5 32.5t97 86t58 121t19.5 136.5q0 68 -18.5 128.5t-55 107.5t-92 74.5t-129.5 27.5q-96 -2 -167.5 -34.5t-119.5 -85t-73 -118 t-25 -132.5zM184 1210q66 90 119 162q23 31 44 59.5t37.5 52t27.5 38.5l10 14h215l162 -358l-50 -21q-10 -4 -18 -6t-16 -6t-17 -6l-82 143q-31 53 -55.5 97t-24.5 46l-11 -21q-11 -22 -29.5 -54.5t-39 -71.5t-38 -71.5t-29.5 -55.5l-12 -23q-2 0 -33 12.5t-66 28.5z" />
<glyph unicode="&#xe3;" d="M-2 487q0 164 55.5 268.5t138 165t182 84t185.5 23.5q150 0 260 -70l-6 123l227 -2q0 -2 -1 -50t-2 -126t-2 -178t-3 -203.5t-3 -203t-3 -177.5t-3 -125t-3 -47h-19q-16 0 -35.5 -1t-39.5 -1q-23 -2 -47 -2q0 18 -2 41q-2 20 -4.5 47t-4.5 62q-66 -53 -151.5 -83 t-198.5 -30q-115 0 -211 30.5t-164.5 92t-106.5 153t-38 209.5zM143 500q0 -66 23.5 -127.5t70 -109.5t116 -77.5t161.5 -29.5q76 0 134.5 32.5t97 86t58 121t19.5 136.5q0 68 -18.5 128.5t-55 107.5t-92 74.5t-129.5 27.5q-96 -2 -167.5 -34.5t-119.5 -85t-73 -118 t-25 -132.5zM287 1221v2q0 8 17.5 49t43 85t57.5 80t62 36q33 0 65 -21.5t57.5 -48.5t47 -48.5t33.5 -21.5q12 2 27.5 25.5t30.5 52.5q16 33 30 72l105 -56q-25 -63 -49 -114q-23 -45 -50.5 -83t-58.5 -46q-23 -6 -41 -6q-33 0 -54.5 12t-39 27.5t-34.5 29t-38 13.5 q-25 -4 -40 -20.5t-25 -35.5q-10 -23 -17 -49q-29 18 -51 33q-20 12 -40.5 22.5t-31.5 10.5h-4h-2z" />
<glyph unicode="&#xe4;" d="M-2 487q0 164 55.5 268.5t138 165t182 84t185.5 23.5q150 0 260 -70l-6 123l227 -2q0 -2 -1 -50t-2 -126t-2 -178t-3 -203.5t-3 -203t-3 -177.5t-3 -125t-3 -47h-19q-16 0 -35.5 -1t-39.5 -1q-23 -2 -47 -2q0 18 -2 41q-2 20 -4.5 47t-4.5 62q-66 -53 -151.5 -83 t-198.5 -30q-115 0 -211 30.5t-164.5 92t-106.5 153t-38 209.5zM143 500q0 -66 23.5 -127.5t70 -109.5t116 -77.5t161.5 -29.5q76 0 134.5 32.5t97 86t58 121t19.5 136.5q0 68 -18.5 128.5t-55 107.5t-92 74.5t-129.5 27.5q-96 -2 -167.5 -34.5t-119.5 -85t-73 -118 t-25 -132.5zM205 1276q0 25 18.5 52t59.5 56q23 16 44 23.5t42 7.5q41 0 65.5 -28.5t24.5 -65.5q0 -41 -35 -77t-112 -36q-53 0 -80 19.5t-27 48.5zM533 1276q0 25 18.5 52t59.5 56q23 16 44 23.5t42 7.5q41 0 65.5 -28.5t24.5 -65.5q0 -41 -35 -77t-113 -36 q-53 0 -79.5 19.5t-26.5 48.5z" />
<glyph unicode="&#xe5;" d="M-2 487q0 164 55.5 268.5t138 165t182 84t185.5 23.5q150 0 260 -70l-6 123l227 -2q0 -2 -1 -50t-2 -126t-2 -178t-3 -203.5t-3 -203t-3 -177.5t-3 -125t-3 -47h-19q-16 0 -35.5 -1t-39.5 -1q-23 -2 -47 -2q0 18 -2 41q-2 20 -4.5 47t-4.5 62q-66 -53 -151.5 -83 t-198.5 -30q-115 0 -211 30.5t-164.5 92t-106.5 153t-38 209.5zM143 500q0 -66 23.5 -127.5t70 -109.5t116 -77.5t161.5 -29.5q76 0 134.5 32.5t97 86t58 121t19.5 136.5q0 68 -18.5 128.5t-55 107.5t-92 74.5t-129.5 27.5q-96 -2 -167.5 -34.5t-119.5 -85t-73 -118 t-25 -132.5zM227 1255q0 51 41 111t125 119q51 35 96 50t86 15q43 0 79 -16t61.5 -44t39 -63.5t13.5 -74.5q0 -43 -17.5 -85t-56.5 -76t-98.5 -54.5t-141.5 -20.5q-113 0 -170 40t-57 99zM350 1276q0 -68 115 -68q74 0 106.5 37t32.5 76q0 37 -24.5 65.5t-65.5 28.5 q-20 0 -41.5 -7.5t-44.5 -23.5q-41 -29 -59.5 -56.5t-18.5 -51.5z" />
<glyph unicode="&#xe6;" horiz-adv-x="1955" d="M-2 487q0 164 55.5 268.5t138 165t182 84t185.5 23.5q150 0 260 -70l-6 123l227 -2q0 -2 -1 -47t-1 -117q84 63 185.5 88t191.5 25q109 0 194 -36t145.5 -98.5t96 -145t47.5 -177.5q0 -2 -56 -8t-144 -15t-192.5 -20.5t-201 -21.5t-171 -18.5t-101.5 -12.5 q0 -18 -1 -37.5t-1 -38.5q12 -51 39 -96t68 -77.5t97 -51t132 -18.5q84 0 149.5 48t104.5 109l197 -82q-66 -96 -178.5 -162.5t-268.5 -66.5q-104 0 -192 24.5t-154 73.5q-2 -29 -2 -53v-41q0 -20 -2 -37h-19q-16 0 -35.5 -1t-39.5 -1q-23 -2 -47 -2q0 18 -2 41 q-2 20 -4.5 47t-4.5 62q-66 -53 -151.5 -83t-198.5 -30q-115 0 -211 30.5t-164.5 92t-106.5 153t-38 209.5zM143 500q0 -66 23.5 -127.5t70 -109.5t116 -77.5t161.5 -29.5q76 0 134.5 32.5t97 86t58 121t19.5 136.5q0 68 -18.5 128.5t-55 107.5t-92 74.5t-129.5 27.5 q-96 -2 -167.5 -34.5t-119.5 -85t-73 -118t-25 -132.5zM1034 612l287 50q53 8 104.5 17t90 15t62.5 10l24 5q-10 59 -75 99t-173 40q-139 0 -221.5 -66t-98.5 -170z" />
<glyph unicode="&#xe7;" horiz-adv-x="987" d="M-10 514q0 96 32.5 187.5t99 163t165 115.5t229.5 44q139 0 236.5 -45t165.5 -135l-127 -99q-47 55 -106.5 90t-162.5 35q-76 0 -134 -32.5t-97 -86t-58.5 -121t-19.5 -136.5q0 -68 17.5 -128.5t54.5 -107.5t92 -74.5t131 -27.5q104 4 181 42t124 97l135 -84 q-43 -61 -100 -102t-120.5 -66t-129.5 -35t-125 -10q-115 0 -205 41t-151.5 111.5t-94 165t-32.5 198.5zM307 -350q10 -2 21 -2q10 -2 21 -2h28q25 0 50.5 2t47 10t34.5 21.5t13 35.5q0 31 -28.5 47.5t-64.5 23.5t-65.5 8t-31.5 1q8 74 16 133q6 51 11.5 92.5t9.5 45.5h4 q2 0 5 1t7 1q12 0 31.5 -1t38.5 -4q23 -2 43 -4l6 -172h14q16 0 53 -5t74 -26.5t64.5 -64.5t27.5 -119q0 -41 -20.5 -67.5t-52 -42t-72.5 -21.5t-84 -6q-39 0 -75 3t-64 7q-33 6 -62 13v92z" />
<glyph unicode="&#xe8;" horiz-adv-x="1083" d="M-2 487q0 164 55.5 269.5t140.5 166t184 83t185 22.5q109 0 194 -36t145.5 -98.5t96 -145t48.5 -177.5q0 -2 -64.5 -9t-163 -17t-212 -21.5t-211 -23t-163 -18.5t-65.5 -9q4 -63 25.5 -120.5t63.5 -101.5t105.5 -69.5t151.5 -25.5q84 0 149.5 48t104.5 109l197 -82 q-66 -96 -178.5 -162.5t-268.5 -66.5q-115 0 -211 30.5t-164.5 92t-106.5 153t-38 209.5zM182 612l287 50q53 8 104.5 17t90 15t62.5 10l24 5q-10 59 -75 99t-173 40q-139 0 -221.5 -66t-98.5 -170zM313 1364l140 176q90 -98 157 -176q29 -33 56.5 -64.5t49 -56t33.5 -39.5 l13 -14q-2 0 -16.5 -11.5t-32 -24.5t-31.5 -24.5t-16 -11.5l-15 12q-16 11 -40.5 28.5t-56.5 40t-65 44.5q-78 53 -176 121z" />
<glyph unicode="&#xe9;" horiz-adv-x="1083" d="M-2 487q0 164 55.5 269.5t140.5 166t184 83t185 22.5q109 0 194 -36t145.5 -98.5t96 -145t48.5 -177.5q0 -2 -64.5 -9t-163 -17t-212 -21.5t-211 -23t-163 -18.5t-65.5 -9q4 -63 25.5 -120.5t63.5 -101.5t105.5 -69.5t151.5 -25.5q84 0 149.5 48t104.5 109l197 -82 q-66 -96 -178.5 -162.5t-268.5 -66.5q-115 0 -211 30.5t-164.5 92t-106.5 153t-38 209.5zM182 612l287 50q53 8 104.5 17t90 15t62.5 10l24 5q-10 59 -75 99t-173 40q-139 0 -221.5 -66t-98.5 -170zM319 1190q-2 0 10.5 14.5t34 39t50 56t57.5 64.5q68 78 158 176l139 -176 q-98 -68 -176 -121q-33 -23 -64.5 -45t-56.5 -39.5t-32 -23.5l-23 -17q-2 0 -16.5 11.5t-32 24.5t-32 24.5t-16.5 11.5z" />
<glyph unicode="&#xea;" horiz-adv-x="1083" d="M-2 487q0 164 55.5 269.5t140.5 166t184 83t185 22.5q109 0 194 -36t145.5 -98.5t96 -145t48.5 -177.5q0 -2 -64.5 -9t-163 -17t-212 -21.5t-211 -23t-163 -18.5t-65.5 -9q4 -63 25.5 -120.5t63.5 -101.5t105.5 -69.5t151.5 -25.5q84 0 149.5 48t104.5 109l197 -82 q-66 -96 -178.5 -162.5t-268.5 -66.5q-115 0 -211 30.5t-164.5 92t-106.5 153t-38 209.5zM182 612l287 50q53 8 104.5 17t90 15t62.5 10l24 5q-10 59 -75 99t-173 40q-139 0 -221.5 -66t-98.5 -170zM233 1210q66 90 119 162q23 31 44 59.5t37.5 52t27.5 38.5l10 14h215 l162 -358l-50 -21q-10 -4 -18 -6t-16 -6t-17 -6l-82 143q-31 53 -55.5 97t-24.5 46l-11 -21q-11 -22 -29.5 -54.5t-39 -71.5t-38 -71.5t-29.5 -55.5l-12 -23q-2 0 -33 12.5t-66 28.5z" />
<glyph unicode="&#xeb;" horiz-adv-x="1083" d="M-2 487q0 164 55.5 269.5t140.5 166t184 83t185 22.5q109 0 194 -36t145.5 -98.5t96 -145t48.5 -177.5q0 -2 -64.5 -9t-163 -17t-212 -21.5t-211 -23t-163 -18.5t-65.5 -9q4 -63 25.5 -120.5t63.5 -101.5t105.5 -69.5t151.5 -25.5q84 0 149.5 48t104.5 109l197 -82 q-66 -96 -178.5 -162.5t-268.5 -66.5q-115 0 -211 30.5t-164.5 92t-106.5 153t-38 209.5zM182 612l287 50q53 8 104.5 17t90 15t62.5 10l24 5q-10 59 -75 99t-173 40q-139 0 -221.5 -66t-98.5 -170zM223 1276q0 25 18.5 52t59.5 56q23 16 44 23.5t42 7.5q41 0 65.5 -28.5 t24.5 -65.5q0 -41 -35 -77t-112 -36q-53 0 -80 19.5t-27 48.5zM551 1276q0 25 18.5 52t59.5 56q23 16 44 23.5t42 7.5q41 0 65.5 -28.5t24.5 -65.5q0 -41 -35 -77t-113 -36q-53 0 -79.5 19.5t-26.5 48.5z" />
<glyph unicode="&#xec;" horiz-adv-x="700" d="M2 1014l625 4q0 -2 -4.5 -46t-11.5 -117t-15 -165t-17.5 -187t-18.5 -187.5t-16 -164t-11.5 -114.5t-6.5 -43h-18q-16 0 -35.5 -1t-40.5 -1q-23 -2 -47 -2q12 215 21 391q4 74 7 147.5t6 135t5 104.5t2 55q0 6 -1 6h-5q-18 0 -79.5 -2t-131.5 -4t-127 -3t-66 -1l-3 31 t-5 66.5t-4 65.5t-2 32zM123 1364l140 176q90 -98 157 -176q29 -33 56.5 -64.5t49 -56t33.5 -39.5l13 -14q-2 0 -16.5 -11.5t-32 -24.5t-31.5 -24.5t-16 -11.5l-15 12q-16 11 -40.5 28.5t-56.5 40t-65 44.5q-78 53 -176 121z" />
<glyph unicode="&#xed;" horiz-adv-x="700" d="M2 1014l625 4q0 -2 -4.5 -46t-11.5 -117t-15 -165t-17.5 -187t-18.5 -187.5t-16 -164t-11.5 -114.5t-6.5 -43h-18q-16 0 -35.5 -1t-40.5 -1q-23 -2 -47 -2q12 215 21 391q4 74 7 147.5t6 135t5 104.5t2 55q0 6 -1 6h-5q-18 0 -79.5 -2t-131.5 -4t-127 -3t-66 -1l-3 31 t-5 66.5t-4 65.5t-2 32zM129 1190q-2 0 10.5 14.5t34 39t50 56t57.5 64.5q68 78 158 176l139 -176q-98 -68 -176 -121q-33 -23 -64.5 -45t-56.5 -39.5t-32 -23.5l-23 -17q-2 0 -16.5 11.5t-32 24.5t-32 24.5t-16.5 11.5z" />
<glyph unicode="&#xee;" horiz-adv-x="700" d="M2 1014l625 4q0 -2 -4.5 -46t-11.5 -117t-15 -165t-17.5 -187t-18.5 -187.5t-16 -164t-11.5 -114.5t-6.5 -43h-18q-16 0 -35.5 -1t-40.5 -1q-23 -2 -47 -2q12 215 21 391q4 74 7 147.5t6 135t5 104.5t2 55q0 6 -1 6h-5q-18 0 -79.5 -2t-131.5 -4t-127 -3t-66 -1l-3 31 t-5 66.5t-4 65.5t-2 32zM43 1210q66 90 119 162q23 31 44 59.5t37.5 52t27.5 38.5l10 14h215l162 -358l-50 -21q-10 -4 -18 -6t-16 -6t-17 -6l-82 143q-31 53 -55.5 97t-24.5 46l-11 -21q-11 -22 -29.5 -54.5t-39 -71.5t-38 -71.5t-29.5 -55.5l-12 -23q-2 0 -33 12.5 t-66 28.5z" />
<glyph unicode="&#xef;" horiz-adv-x="700" d="M2 1014l625 4q0 -2 -4.5 -46t-11.5 -117t-15 -165t-17.5 -187t-18.5 -187.5t-16 -164t-11.5 -114.5t-6.5 -43h-18q-16 0 -35.5 -1t-40.5 -1q-23 -2 -47 -2q12 215 21 391q4 74 7 147.5t6 135t5 104.5t2 55q0 6 -1 6h-5q-18 0 -79.5 -2t-131.5 -4t-127 -3t-66 -1l-3 31 t-5 66.5t-4 65.5t-2 32zM33 1276q0 25 18.5 52t59.5 56q23 16 44 23.5t42 7.5q41 0 65.5 -28.5t24.5 -65.5q0 -41 -35 -77t-112 -36q-53 0 -80 19.5t-27 48.5zM361 1276q0 25 18.5 52t59.5 56q23 16 44 23.5t42 7.5q41 0 65.5 -28.5t24.5 -65.5q0 -41 -35 -77t-113 -36 q-53 0 -79.5 19.5t-26.5 48.5z" />
<glyph unicode="&#xf0;" horiz-adv-x="1124" d="M4 520q0 98 36 185.5t103.5 153t163.5 103t217 37.5q29 0 58.5 -3t60.5 -7l-270 357l164 104l430 -659q57 -84 83.5 -163t26.5 -153q0 -78 -36.5 -163t-105.5 -155.5t-166 -116.5t-216 -46q-115 0 -215 39t-174 109.5t-117 167t-43 210.5zM145 543q0 -72 31 -145.5 t82 -132t118.5 -95.5t141.5 -37q33 0 66.5 8.5t68.5 26.5q106 59 153.5 141t47.5 168q0 88 -36 155.5t-89 111.5t-118.5 67t-123.5 23q-80 0 -143 -25t-107 -66t-68 -93t-24 -107zM416 1110h2h-2zM418 1110q4 2 19.5 17.5l37 37t48 49t52.5 56.5q63 68 142 149l114 -119 l-360 -249q-12 14 -22 26q-10 10 -18.5 19.5t-12.5 13.5z" />
<glyph unicode="&#xf1;" horiz-adv-x="1103" d="M23 973q0 76 2 76q2 -2 18 -2h34.5t41.5 2q23 2 47 4l10 -127q61 41 149.5 69.5t217.5 28.5q111 -4 192.5 -40t138 -96.5t91 -137t54 -160.5t27 -169t7.5 -159q0 -90 -5.5 -156.5t-5.5 -93.5q0 -10 2 -12l-264 -4q6 49 15 104q4 47 9 109.5t5 132.5q0 92 -12.5 188.5 t-44 174t-89 127t-149.5 49.5q-57 0 -105.5 -16.5t-88 -42t-71.5 -57.5t-54 -63l57 -700h-109q-20 0 -38.5 -1t-34.5 -1h-33l-1 56q-1 55 -3 142t-3 196.5t-3 218t-3 203.5t-1 157zM223 1221v2q0 8 17.5 49t43 85t57.5 80t62 36q33 0 65 -21.5t57.5 -48.5t47 -48.5 t33.5 -21.5q12 2 27.5 25.5t30.5 52.5q16 33 30 72l105 -56q-25 -63 -49 -114q-23 -45 -50.5 -83t-58.5 -46q-23 -6 -41 -6q-33 0 -54.5 12t-39 27.5t-34.5 29t-38 13.5q-25 -4 -40 -20.5t-25 -35.5q-10 -23 -17 -49q-29 18 -51 33q-20 12 -40.5 22.5t-31.5 10.5h-4h-2z" />
<glyph unicode="&#xf2;" horiz-adv-x="1089" d="M-2 487q0 164 55.5 268.5t138 165t182 84t185.5 23.5q115 0 206 -41t153.5 -111.5t95.5 -164t33 -199.5q0 -96 -33 -188.5t-99.5 -164t-166 -114.5t-230.5 -43q-115 0 -211 30.5t-164.5 92t-106.5 153t-38 209.5zM143 500q0 -66 23.5 -127.5t70 -109.5t116 -77.5 t161.5 -29.5q76 0 134.5 32.5t97 86t58 121t19.5 136.5q0 68 -18.5 128.5t-55 107.5t-92 74.5t-129.5 27.5q-96 -2 -167.5 -34.5t-119.5 -85t-73 -118t-25 -132.5zM317 1364l140 176q90 -98 157 -176q29 -33 56.5 -64.5t49 -56t33.5 -39.5l13 -14q-2 0 -16.5 -11.5 t-32 -24.5t-31.5 -24.5t-16 -11.5l-15 12q-16 11 -40.5 28.5t-56.5 40t-65 44.5q-78 53 -176 121z" />
<glyph unicode="&#xf3;" horiz-adv-x="1089" d="M-2 487q0 164 55.5 268.5t138 165t182 84t185.5 23.5q115 0 206 -41t153.5 -111.5t95.5 -164t33 -199.5q0 -96 -33 -188.5t-99.5 -164t-166 -114.5t-230.5 -43q-115 0 -211 30.5t-164.5 92t-106.5 153t-38 209.5zM143 500q0 -66 23.5 -127.5t70 -109.5t116 -77.5 t161.5 -29.5q76 0 134.5 32.5t97 86t58 121t19.5 136.5q0 68 -18.5 128.5t-55 107.5t-92 74.5t-129.5 27.5q-96 -2 -167.5 -34.5t-119.5 -85t-73 -118t-25 -132.5zM323 1190q-2 0 10.5 14.5t34 39t50 56t57.5 64.5q68 78 158 176l139 -176q-98 -68 -176 -121 q-33 -23 -64.5 -45t-56.5 -39.5t-32 -23.5l-23 -17q-2 0 -16.5 11.5t-32 24.5t-32 24.5t-16.5 11.5z" />
<glyph unicode="&#xf4;" horiz-adv-x="1089" d="M-2 487q0 164 55.5 268.5t138 165t182 84t185.5 23.5q115 0 206 -41t153.5 -111.5t95.5 -164t33 -199.5q0 -96 -33 -188.5t-99.5 -164t-166 -114.5t-230.5 -43q-115 0 -211 30.5t-164.5 92t-106.5 153t-38 209.5zM143 500q0 -66 23.5 -127.5t70 -109.5t116 -77.5 t161.5 -29.5q76 0 134.5 32.5t97 86t58 121t19.5 136.5q0 68 -18.5 128.5t-55 107.5t-92 74.5t-129.5 27.5q-96 -2 -167.5 -34.5t-119.5 -85t-73 -118t-25 -132.5zM237 1210q66 90 119 162q23 31 44 59.5t37.5 52t27.5 38.5l10 14h215l162 -358l-50 -21q-10 -4 -18 -6 t-16 -6t-17 -6l-82 143q-31 53 -55.5 97t-24.5 46l-11 -21q-11 -22 -29.5 -54.5t-39 -71.5t-38 -71.5t-29.5 -55.5l-12 -23q-2 0 -33 12.5t-66 28.5z" />
<glyph unicode="&#xf5;" horiz-adv-x="1089" d="M-2 487q0 164 55.5 268.5t138 165t182 84t185.5 23.5q115 0 206 -41t153.5 -111.5t95.5 -164t33 -199.5q0 -96 -33 -188.5t-99.5 -164t-166 -114.5t-230.5 -43q-115 0 -211 30.5t-164.5 92t-106.5 153t-38 209.5zM143 500q0 -66 23.5 -127.5t70 -109.5t116 -77.5 t161.5 -29.5q76 0 134.5 32.5t97 86t58 121t19.5 136.5q0 68 -18.5 128.5t-55 107.5t-92 74.5t-129.5 27.5q-96 -2 -167.5 -34.5t-119.5 -85t-73 -118t-25 -132.5zM264 1221v2q0 8 17.5 49t43 85t57.5 80t62 36q33 0 65 -21.5t57.5 -48.5t47 -48.5t33.5 -21.5 q12 2 27.5 25.5t30.5 52.5q16 33 30 72l105 -56q-25 -63 -49 -114q-23 -45 -50.5 -83t-58.5 -46q-23 -6 -41 -6q-33 0 -54.5 12t-39 27.5t-34.5 29t-38 13.5q-25 -4 -40 -20.5t-25 -35.5q-10 -23 -17 -49q-29 18 -51 33q-20 12 -40.5 22.5t-31.5 10.5h-4h-2z" />
<glyph unicode="&#xf6;" horiz-adv-x="1089" d="M-2 487q0 164 55.5 268.5t138 165t182 84t185.5 23.5q115 0 206 -41t153.5 -111.5t95.5 -164t33 -199.5q0 -96 -33 -188.5t-99.5 -164t-166 -114.5t-230.5 -43q-115 0 -211 30.5t-164.5 92t-106.5 153t-38 209.5zM143 500q0 -66 23.5 -127.5t70 -109.5t116 -77.5 t161.5 -29.5q76 0 134.5 32.5t97 86t58 121t19.5 136.5q0 68 -18.5 128.5t-55 107.5t-92 74.5t-129.5 27.5q-96 -2 -167.5 -34.5t-119.5 -85t-73 -118t-25 -132.5zM227 1276q0 25 18.5 52t59.5 56q23 16 44 23.5t42 7.5q41 0 65.5 -28.5t24.5 -65.5q0 -41 -35 -77t-112 -36 q-53 0 -80 19.5t-27 48.5zM555 1276q0 25 18.5 52t59.5 56q23 16 44 23.5t42 7.5q41 0 65.5 -28.5t24.5 -65.5q0 -41 -35 -77t-113 -36q-53 0 -79.5 19.5t-26.5 48.5z" />
<glyph unicode="&#xf7;" horiz-adv-x="720" d="M25 727v27.5t2 33.5q2 18 4 39l315 33q59 6 115.5 12.5t101.5 10.5t73 7t30 3q0 -2 2 -20.5t4 -43t4 -51t2 -43.5q0 -12 -6 -17t-25.5 -6t-53.5 0t-89 1h-156t-154.5 1t-118.5 1h-48q-2 0 -2 12zM219 518q0 25 18.5 52.5t59.5 56.5q23 16 44 23t42 7q41 0 65.5 -28.5 t24.5 -65.5q0 -41 -35 -76.5t-112 -35.5q-53 0 -80 19t-27 48zM219 979q0 25 18.5 52t59.5 56q23 16 44 23.5t42 7.5q41 0 65.5 -28.5t24.5 -65.5q0 -41 -35 -77t-112 -36q-53 0 -80 19.5t-27 48.5z" />
<glyph unicode="&#xf8;" horiz-adv-x="1089" d="M-2 487q0 164 55.5 268.5t138 165t182 84t185.5 23.5q115 0 206 -41t153.5 -111.5t95.5 -164t33 -199.5q0 -96 -33 -188.5t-99.5 -164t-166 -114.5t-230.5 -43q-115 0 -211 30.5t-164.5 92t-106.5 153t-38 209.5zM31 -65q2 0 37 54t92 143t130 202t148.5 231.5t147.5 232 t128 204t91 144.5t35 56q4 0 21.5 -11t37.5 -26q23 -16 54 -34q-213 -379 -379 -676q-72 -127 -139.5 -248t-121 -216t-84.5 -154l-32 -58l-26 24q-27 25 -59 53.5t-57.5 53.5t-23.5 25zM143 500q0 -66 23.5 -127.5t70 -109.5t116 -77.5t161.5 -29.5q76 0 134.5 32.5t97 86 t58 121t19.5 136.5q0 68 -18.5 128.5t-55 107.5t-92 74.5t-129.5 27.5q-96 -2 -167.5 -34.5t-119.5 -85t-73 -118t-25 -132.5z" />
<glyph unicode="&#xf9;" d="M18 492v43.5t1 93t1 120t1.5 123t2.5 103.5t3 59l163 -2q-2 -8 -3 -43t-1 -86q0 -57 1 -123.5t2 -127t2.5 -102.5t3.5 -50q6 -70 28.5 -125.5t62.5 -94t101.5 -60t144.5 -21.5q92 0 152.5 38.5t96.5 107.5t49.5 165t13.5 211q-6 92 -6 160.5t-4 148.5l227 -2v-31 q0 -45 -1 -138t-4 -206.5t-5 -235.5t-5.5 -221.5t-4.5 -163.5l-1 -63h-18q-16 0 -35.5 -1t-40.5 -1q-23 -2 -47 -2q0 18 -2 41q-2 20 -4 48t-4 63q-66 -55 -152 -86t-198 -31q-117 0 -212.5 31.5t-164 94t-106.5 154t-38 212.5zM325 1364l140 176q90 -98 157 -176 q29 -33 56.5 -64.5t49 -56t33.5 -39.5l13 -14q-2 0 -16.5 -11.5t-32 -24.5t-31.5 -24.5t-16 -11.5l-15 12q-16 11 -40.5 28.5t-56.5 40t-65 44.5q-78 53 -176 121z" />
<glyph unicode="&#xfa;" d="M18 492v43.5t1 93t1 120t1.5 123t2.5 103.5t3 59l163 -2q-2 -8 -3 -43t-1 -86q0 -57 1 -123.5t2 -127t2.5 -102.5t3.5 -50q6 -70 28.5 -125.5t62.5 -94t101.5 -60t144.5 -21.5q92 0 152.5 38.5t96.5 107.5t49.5 165t13.5 211q-6 92 -6 160.5t-4 148.5l227 -2v-31 q0 -45 -1 -138t-4 -206.5t-5 -235.5t-5.5 -221.5t-4.5 -163.5l-1 -63h-18q-16 0 -35.5 -1t-40.5 -1q-23 -2 -47 -2q0 18 -2 41q-2 20 -4 48t-4 63q-66 -55 -152 -86t-198 -31q-117 0 -212.5 31.5t-164 94t-106.5 154t-38 212.5zM331 1190q-2 0 10.5 14.5t34 39t50 56 t57.5 64.5q68 78 158 176l139 -176q-98 -68 -176 -121q-33 -23 -64.5 -45t-56.5 -39.5t-32 -23.5l-23 -17q-2 0 -16.5 11.5t-32 24.5t-32 24.5t-16.5 11.5z" />
<glyph unicode="&#xfb;" d="M18 492v43.5t1 93t1 120t1.5 123t2.5 103.5t3 59l163 -2q-2 -8 -3 -43t-1 -86q0 -57 1 -123.5t2 -127t2.5 -102.5t3.5 -50q6 -70 28.5 -125.5t62.5 -94t101.5 -60t144.5 -21.5q92 0 152.5 38.5t96.5 107.5t49.5 165t13.5 211q-6 92 -6 160.5t-4 148.5l227 -2v-31 q0 -45 -1 -138t-4 -206.5t-5 -235.5t-5.5 -221.5t-4.5 -163.5l-1 -63h-18q-16 0 -35.5 -1t-40.5 -1q-23 -2 -47 -2q0 18 -2 41q-2 20 -4 48t-4 63q-66 -55 -152 -86t-198 -31q-117 0 -212.5 31.5t-164 94t-106.5 154t-38 212.5zM246 1210q66 90 119 162q23 31 44 59.5 t37.5 52t27.5 38.5l10 14h215l162 -358l-50 -21q-10 -4 -18 -6t-16 -6t-17 -6l-82 143q-31 53 -55.5 97t-24.5 46l-11 -21q-11 -22 -29.5 -54.5t-39 -71.5t-38 -71.5t-29.5 -55.5l-12 -23q-2 0 -33 12.5t-66 28.5z" />
<glyph unicode="&#xfc;" d="M18 492v43.5t1 93t1 120t1.5 123t2.5 103.5t3 59l163 -2q-2 -8 -3 -43t-1 -86q0 -57 1 -123.5t2 -127t2.5 -102.5t3.5 -50q6 -70 28.5 -125.5t62.5 -94t101.5 -60t144.5 -21.5q92 0 152.5 38.5t96.5 107.5t49.5 165t13.5 211q-6 92 -6 160.5t-4 148.5l227 -2v-31 q0 -45 -1 -138t-4 -206.5t-5 -235.5t-5.5 -221.5t-4.5 -163.5l-1 -63h-18q-16 0 -35.5 -1t-40.5 -1q-23 -2 -47 -2q0 18 -2 41q-2 20 -4 48t-4 63q-66 -55 -152 -86t-198 -31q-117 0 -212.5 31.5t-164 94t-106.5 154t-38 212.5zM235 1276q0 25 18.5 52t59.5 56 q23 16 44 23.5t42 7.5q41 0 65.5 -28.5t24.5 -65.5q0 -41 -35 -77t-112 -36q-53 0 -80 19.5t-27 48.5zM563 1276q0 25 18.5 52t59.5 56q23 16 44 23.5t42 7.5q41 0 65.5 -28.5t24.5 -65.5q0 -41 -35 -77t-113 -36q-53 0 -79.5 19.5t-26.5 48.5z" />
<glyph unicode="&#xfd;" horiz-adv-x="1206" d="M6 842q-4 0 24.5 23.5t65.5 51t70 51.5l33 23q82 -131 161 -258q33 -55 70 -114.5t74 -118t70.5 -113.5t64.5 -102q66 141 130.5 275t113.5 239q57 123 110 233l32 -18q32 -19 70 -40.5t68.5 -40t28.5 -18.5t-37 -62t-91 -164.5t-128 -233.5t-146.5 -268.5t-146.5 -269.5 t-128 -234.5t-90 -166t-34 -65.5q-4 0 -21.5 10.5t-37.5 24.5l-53 37l276 583zM380 1190q-2 0 10.5 14.5t34 39t50 56t57.5 64.5q68 78 158 176l139 -176q-98 -68 -176 -121q-33 -23 -64.5 -45t-56.5 -39.5t-32 -23.5l-23 -17q-2 0 -16.5 11.5t-32 24.5t-32 24.5t-16.5 11.5 z" />
<glyph unicode="&#xfe;" horiz-adv-x="876" d="M41 1372q0 55 2 55q2 -2 18 -2h35t41 2q23 2 47 5l23 -416q68 12 133 12q115 0 205 -41t151.5 -111.5t94 -165t32.5 -198.5q0 -96 -32.5 -188.5t-99 -164t-166 -115.5t-230.5 -44h-16.5t-16.5 2l23 -410h-109q-20 0 -38.5 -1t-35.5 -1h-32l-1 64q-1 63 -3.5 170.5 t-5.5 247t-5 293t-5 308t-5 291t-3 244t-1 164.5zM215 860l39 -704h37q76 0 134 32.5t97 86t58.5 121t19.5 136.5q0 68 -18.5 128.5t-55.5 107.5t-92 74.5t-129 27.5q-25 0 -47 -3t-43 -7z" />
<glyph unicode="&#xff;" horiz-adv-x="1206" d="M6 842q-4 0 24.5 23.5t65.5 51t70 51.5l33 23q82 -131 161 -258q33 -55 70 -114.5t74 -118t70.5 -113.5t64.5 -102q66 141 130.5 275t113.5 239q57 123 110 233l32 -18q32 -19 70 -40.5t68.5 -40t28.5 -18.5t-37 -62t-91 -164.5t-128 -233.5t-146.5 -268.5t-146.5 -269.5 t-128 -234.5t-90 -166t-34 -65.5q-4 0 -21.5 10.5t-37.5 24.5l-53 37l276 583zM285 1276q0 25 18.5 52t59.5 56q23 16 44 23.5t42 7.5q41 0 65.5 -28.5t24.5 -65.5q0 -41 -35 -77t-112 -36q-53 0 -80 19.5t-27 48.5zM613 1276q0 25 18.5 52t59.5 56q23 16 44 23.5t42 7.5 q41 0 65.5 -28.5t24.5 -65.5q0 -41 -35 -77t-113 -36q-53 0 -79.5 19.5t-26.5 48.5z" />
<glyph unicode="&#x152;" horiz-adv-x="1210" d="M2 705q0 10 1 22t1 25q20 184 72.5 310t130.5 202.5t180 111.5t223 37v-2q78 2 163 6t156.5 7t121 5.5t55.5 2.5q0 -2 1 -17.5t2 -37t2 -46t1 -45.5q0 -18 1 -26.5t-3 -12.5t-18.5 -4h-47.5h-82t-101 1t-114.5 2t-117.5 3l28 -405q57 8 119 17t112 18.5t66 12.5l50 7 q0 -2 2 -20.5t4 -43t4 -51t2 -43.5q0 -12 -4 -17t-16.5 -6t-36 0t-62.5 1h-231l34 -549q16 4 89 5t157 5q98 2 215 6q-2 0 -2 -27.5t-2 -62.5q-2 -39 -2 -90q-162 0 -266.5 -1t-164.5 -1t-88 -1t-36 -1t-7 0t-3 0q-147 0 -257 55.5t-183.5 150.5t-110.5 223t-37 274z M143 664q2 -100 26 -187.5t67 -153t108.5 -106.5t155.5 -49l-19 1061q-68 -16 -129 -58.5t-107 -110t-74 -159.5t-28 -209v-28z" />
<glyph unicode="&#x153;" horiz-adv-x="1765" d="M-2 487q0 164 55.5 268.5t138 165t182 84t185.5 23.5q92 0 169 -26.5t136 -73.5q82 55 177.5 77.5t181.5 22.5q109 0 193.5 -36t145 -98.5t96.5 -145t48 -177.5q0 -2 -64.5 -9t-163 -17t-212 -21.5t-211 -23t-163 -18.5t-65.5 -9q4 -63 25.5 -120.5t63.5 -101.5 t105.5 -69.5t152.5 -25.5q84 0 149.5 48t103.5 109l197 -82q-66 -96 -178.5 -163.5t-267.5 -67.5q-201 0 -336 94q-127 -92 -324 -92q-115 0 -211 30.5t-164.5 92t-106.5 153t-38 209.5zM143 500q0 -66 23.5 -127.5t70 -109.5t116 -77.5t161.5 -29.5q61 0 111.5 21.5 t87.5 60.5q-55 100 -56 245q0 186 74 308q-39 39 -88 59t-115 20q-96 -2 -167.5 -34.5t-119.5 -85t-73 -118t-25 -132.5zM842 612l286 50q53 8 104.5 17t90.5 15t63 10l23 5q-10 59 -74.5 99t-173.5 40q-139 0 -221 -66t-98 -170z" />
<glyph unicode="&#x178;" horiz-adv-x="1148" d="M2 1274q-4 0 24.5 23.5t65.5 51t70 51.5l33 23q78 -115 155 -227q66 -96 139.5 -202.5t133.5 -192.5q78 123 149.5 235.5t125.5 197.5t86 136t30 51q4 0 21.5 -11t37.5 -26q23 -16 53 -34q-63 -111 -131 -232q-59 -104 -131.5 -234t-146.5 -263l59 -619h-108 q-20 0 -39 -1t-35 -1h-33v227v97.5v99.5t1 94t1 82zM256 1686q0 25 18.5 52t59.5 56q23 16 44 23.5t42 7.5q41 0 65.5 -28.5t24.5 -65.5q0 -41 -35 -77t-112 -36q-53 0 -80 19.5t-27 48.5zM584 1686q0 25 18.5 52t59.5 56q23 16 44 23.5t42 7.5q41 0 65.5 -28.5t24.5 -65.5 q0 -41 -35 -77t-113 -36q-53 0 -79.5 19.5t-26.5 48.5z" />
<glyph unicode="&#x2c6;" horiz-adv-x="671" d="M6 1210q66 90 119 162q23 31 44 59.5t37.5 52t27.5 38.5l10 14h215l162 -358l-50 -21q-10 -4 -18 -6t-16 -6t-17 -6l-82 143q-31 53 -55.5 97t-24.5 46l-11 -21q-11 -22 -29.5 -54.5t-39 -71.5t-38 -71.5t-29.5 -55.5l-12 -23q-2 0 -33 12.5t-66 28.5z" />
<glyph unicode="&#x2dc;" horiz-adv-x="636" d="M8 1221v2q0 8 17.5 49t43 85t57.5 80t62 36q33 0 65 -21.5t57.5 -48.5t47 -48.5t33.5 -21.5q12 2 27.5 25.5t30.5 52.5q16 33 30 72l105 -56q-25 -63 -49 -114q-23 -45 -50.5 -83t-58.5 -46q-23 -6 -41 -6q-33 0 -54.5 12t-39 27.5t-34.5 29t-38 13.5q-25 -4 -40 -20.5 t-25 -35.5q-10 -23 -17 -49q-29 18 -51 33q-20 12 -40.5 22.5t-31.5 10.5h-4h-2z" />
<glyph unicode="&#x2000;" horiz-adv-x="980" />
<glyph unicode="&#x2001;" horiz-adv-x="1960" />
<glyph unicode="&#x2002;" horiz-adv-x="980" />
<glyph unicode="&#x2003;" horiz-adv-x="1960" />
<glyph unicode="&#x2004;" horiz-adv-x="653" />
<glyph unicode="&#x2005;" horiz-adv-x="490" />
<glyph unicode="&#x2006;" horiz-adv-x="326" />
<glyph unicode="&#x2007;" horiz-adv-x="326" />
<glyph unicode="&#x2008;" horiz-adv-x="245" />
<glyph unicode="&#x2009;" horiz-adv-x="392" />
<glyph unicode="&#x200a;" horiz-adv-x="108" />
<glyph unicode="&#x2010;" horiz-adv-x="643" d="M25 727v27.5t2 33.5q2 18 4 39l274 33q51 6 101.5 12.5t89.5 10.5t51 5l37 5q0 -2 2 -20.5t4 -43t4 -51t2 -43.5q0 -12 -5 -17t-21.5 -6t-47 0t-80.5 1h-227q-86 0 -138 2t-52 12z" />
<glyph unicode="&#x2011;" horiz-adv-x="643" d="M25 727v27.5t2 33.5q2 18 4 39l274 33q51 6 101.5 12.5t89.5 10.5t51 5l37 5q0 -2 2 -20.5t4 -43t4 -51t2 -43.5q0 -12 -5 -17t-21.5 -6t-47 0t-80.5 1h-227q-86 0 -138 2t-52 12z" />
<glyph unicode="&#x2012;" horiz-adv-x="643" d="M25 727v27.5t2 33.5q2 18 4 39l274 33q51 6 101.5 12.5t89.5 10.5t51 5l37 5q0 -2 2 -20.5t4 -43t4 -51t2 -43.5q0 -12 -5 -17t-21.5 -6t-47 0t-80.5 1h-227q-86 0 -138 2t-52 12z" />
<glyph unicode="&#x2013;" horiz-adv-x="874" d="M25 727v27.5t2 33.5q2 18 4 39q207 18 372 33q70 6 137.5 12.5t122 10.5t88 7t37.5 3q0 -2 2.5 -20.5t4.5 -43t4 -51t2 -43.5q0 -16 -13.5 -20t-50.5 -4q-23 0 -57.5 1t-85.5 1h-184.5t-183.5 1t-142 1h-57q-2 0 -2 12z" />
<glyph unicode="&#x2014;" horiz-adv-x="1071" d="M25 727v27.5t2 33.5q2 18 4 39q264 18 473 33q88 6 175 12.5t155.5 10.5t111.5 7t47 3q0 -2 2 -20.5t4 -43t4.5 -51t2.5 -43.5q0 -16 -15.5 -20t-58.5 -4q-29 0 -75 1t-112 1h-153.5h-160.5t-152.5 1t-129 1h-89.5h-33q-2 0 -2 12z" />
<glyph unicode="&#x2018;" horiz-adv-x="317" d="M18 999q18 80 42 146.5t69 134.5l55 -4q-14 -35 -20 -73t-6 -73q0 -20 2 -28h2q115 0 114 -68q1 -53 -77 -108q-47 -33 -86 -33q-47 0 -71 36t-24 70z" />
<glyph unicode="&#x2019;" horiz-adv-x="321" d="M6 1141q0 25 18.5 52t59.5 56q45 31 86 31q47 0 70.5 -35t23.5 -69q-18 -80 -41.5 -146.5t-68.5 -134.5l-56 4q14 35 19.5 73t5.5 72v29h-2q-115 0 -115 68z" />
<glyph unicode="&#x201c;" horiz-adv-x="540" d="M18 999q18 80 42 146.5t69 134.5l55 -4q-14 -35 -20 -73t-6 -73q0 -20 2 -28h2q72 0 100 -31q16 55 36.5 105.5t55.5 103.5l56 -4q-14 -35 -20.5 -73t-6.5 -73q0 -20 2 -28h2q115 0 115 -68q0 -53 -78 -108q-47 -33 -88 -33q-35 0 -58.5 23.5t-31.5 52.5 q-29 -35 -67 -55.5t-66 -20.5q-47 0 -71 36t-24 70z" />
<glyph unicode="&#x201d;" horiz-adv-x="522" d="M2 1137q0 25 18.5 52t59.5 56q45 31 86 31q37 0 59.5 -22.5t30.5 -51.5q29 33 67.5 53.5t67.5 20.5q47 0 70.5 -35t23.5 -70q-18 -80 -41.5 -146.5t-68.5 -133.5l-56 4q14 35 19.5 73t5.5 72v29h-2q-78 0 -100 29q-16 -55 -37 -105.5t-55 -101.5l-56 4q14 35 19.5 73 t5.5 72v29h-2q-115 0 -115 68z" />
<glyph unicode="&#x2022;" horiz-adv-x="485" d="M2 756q0 41 32.5 87t100.5 93q41 29 78 41t68 12q72 0 112.5 -49t40.5 -111q0 -33 -14 -66.5t-45 -60t-78 -43t-113 -16.5q-92 0 -137 32t-45 81z" />
<glyph unicode="&#x2026;" horiz-adv-x="1093" d="M55 68q0 25 18.5 52t59.5 56q23 16 44.5 23.5t41.5 7.5q41 0 65.5 -28.5t24.5 -65.5q0 -41 -34.5 -77t-112.5 -36q-53 0 -80 19.5t-27 48.5zM420 68q0 25 18.5 52t59.5 56q23 16 44 23.5t42 7.5q41 0 65.5 -28.5t24.5 -65.5q0 -41 -35 -77t-113 -36q-53 0 -79.5 19.5 t-26.5 48.5zM784 68q0 25 18.5 52t59.5 56q23 16 44.5 23.5t41.5 7.5q41 0 65.5 -28.5t24.5 -65.5q0 -41 -34.5 -77t-112.5 -36q-53 0 -80 19.5t-27 48.5z" />
<glyph unicode="&#x202f;" horiz-adv-x="392" />
<glyph unicode="&#x205f;" horiz-adv-x="490" />
<glyph unicode="&#x20ac;" horiz-adv-x="1054" d="M0 645q0 23 11.5 32t51.5 13v62.5t5 62.5h-56.5t-9.5 14v27.5t2 34.5q2 18 4 39q10 0 21 2q10 0 23.5 1t31.5 3q20 111 62 200t98.5 151.5t127 95t148.5 32.5q104 0 218 -60.5t229 -193.5l-125 -98q-76 86 -151 128t-144 42q-92 0 -162 -70.5t-100 -206.5 q72 8 145.5 15.5t133 12.5t98 8t43.5 3q0 -2 2 -20.5t4 -43t4 -51t2 -42.5t-15.5 -20.5t-60.5 -4.5h-125h-124.5t-127.5 2q-2 -14 -2 -26.5v-26.5v-26.5t2 -26.5q74 8 151 15t140 13t105 9.5t45 3.5q0 -2 2 -20.5t4 -43t4 -51.5t2 -43t-14.5 -20.5t-57.5 -4.5h-123h-120.5 t-125.5 2q33 -209 117 -308t189 -99q84 0 165.5 60.5t149.5 180.5l119 -90q-102 -160 -224 -235.5t-243 -75.5q-86 0 -166 37t-143.5 109.5t-108.5 178t-59 242.5h-60.5t-9.5 15q0 23 -1 37t-1 24z" />
<glyph unicode="&#x25fc;" horiz-adv-x="1024" d="M0 0v1024h1024v-1024h-1024z" />
<glyph unicode="&#xfb01;" horiz-adv-x="847" d="M-2 963l160 14q0 10 -1 21.5t-1 21.5q0 82 15 153.5t50 126t90.5 86t137.5 31.5q68 0 118.5 -27.5t88.5 -65.5t63.5 -80t42.5 -68q0 -2 -15.5 -20.5t-35 -40t-37.5 -39.5l-17 -19q-10 4 -23 27.5t-32.5 49t-45.5 46t-56 20.5q-53 0 -84 -53t-45 -152l426 39q0 -2 -1 -47 t-2 -118.5t-3.5 -167t-4.5 -190.5t-4 -190.5t-4 -166t-3 -116.5t-3 -44h-18q-16 0 -36 -1t-40 -1q-23 -2 -47 -2q-2 127 -8 270q-4 123 -10.5 274.5t-16.5 305.5q-35 -2 -72 -2q-33 0 -75.5 -1t-90.5 -1q-2 -41 -3 -85t-1 -92q0 -133 5.5 -292.5t11.5 -348.5l-142 -20 l-61 833q-47 -2 -84 -3t-55 -1q-10 0 -15.5 16.5t-9.5 38t-5 44t-1 37.5z" />
<glyph unicode="&#xfb02;" horiz-adv-x="958" d="M4 850q0 57 1 78.5t40 25.5q-2 14 -2 27.5v28.5q0 82 15.5 156.5t49 130t89 88t137.5 32.5q49 0 89 -14t71.5 -37t57.5 -51.5t46 -54.5q-2 49 -2 92v78l143 2l86 -1233q16 4 32.5 5t29.5 5q14 2 28 6q-2 0 -2 -34t-2 -75q-2 -47 -2 -106h-284l-1 50t-3.5 135t-5.5 198 t-5 237.5t-5 252.5t-5 243q-10 -12 -19.5 -22.5t-17.5 -18.5l-18 -18q-10 4 -23.5 27.5t-33 49t-45 46t-56.5 20.5q-55 0 -86 -56.5t-43 -156.5q43 6 83 11.5t70.5 9.5t40.5 5l29 3q0 -2 2 -20.5t4 -43t4.5 -51.5t2.5 -43t-20.5 -21.5t-65.5 -5.5q-29 0 -69 1.5t-93 1.5 q-2 -41 -3 -85t-1 -92q0 -133 5 -292.5t11 -346.5l-141 -20l-64 838q-39 0 -44 1t-5 13z" />
<glyph unicode="&#xfb03;" horiz-adv-x="1234" d="M3 898.5q-1 19.5 2 30.5t12.5 16t27.5 7q-2 16 -2 31.5v32.5q0 82 15.5 154.5t49 128t90 87t138.5 31.5q92 0 154.5 -48t101.5 -103q33 68 92 109.5t154 41.5q68 0 119 -27.5t88.5 -65.5t63.5 -80t42 -68q0 -2 -15.5 -20.5t-35 -40t-36.5 -39.5l-17 -19q-10 4 -23.5 27.5 t-33 49t-45 46t-56.5 20.5q-53 0 -83 -52t-44 -147l424 33q0 -2 -1 -47t-2 -118.5t-3 -167t-4 -190.5t-4.5 -190.5t-4.5 -166t-3 -116.5t-3 -44h-18q-16 0 -36 -1t-40 -1q-23 -2 -47 -2q-2 127 -8 270q-4 123 -10.5 274.5t-16.5 305.5q-39 0 -80 -2q-35 -2 -77 -3t-80 -4 q-2 -39 -3.5 -79.5t-1.5 -87.5q0 -133 5.5 -294t11.5 -352l-142 -20l-61 825l-311 6q-2 -39 -3 -79.5t-1 -85.5q0 -135 5 -296t11 -350l-141 -20l-64 838q-41 0 -45 1t-4 13q0 29 -1 48.5zM256 967q72 6 147.5 11t141.5 9v35.5t2 36.5l-2 -2q-10 4 -23.5 27.5t-33 49t-45 46 t-56.5 20.5h-14q-49 -10 -77 -68.5t-40 -164.5z" />
<glyph unicode="&#xfb04;" horiz-adv-x="1460" d="M3 898.5q-1 19.5 2 30.5t12.5 16t27.5 7q-2 16 -2 31.5v32.5q0 82 15.5 154.5t49 128t90 87t138.5 31.5q92 0 154.5 -48t101.5 -103q33 68 92 109.5t154 41.5q68 0 119 -27.5t88.5 -65.5t63.5 -80t42 -68q0 -2 -15.5 -20.5t-35 -40t-36.5 -39.5l-17 -19q-10 4 -23.5 27.5 t-33 49t-45 46t-56.5 20.5q-51 0 -81 -50t-46 -146q45 4 84 5t67 3q33 2 60 4q0 -2 2 -20.5t4 -43t4 -51.5t2 -43t-19.5 -20t-72.5 -4h-145q-2 -41 -3.5 -85t-1.5 -92q0 -133 5.5 -292.5t11.5 -346.5l-142 -20l-63 836q-82 0 -160 1t-149 1q-2 -41 -3 -85t-1 -92 q0 -133 5 -292.5t11 -348.5l-141 -20l-64 840h-47q-2 0 -2 12q0 29 -1 48.5zM256 969q66 4 139.5 9t149.5 11v34.5t2 35.5l-2 -2q-10 4 -23.5 27.5t-33 49t-45 46t-56.5 20.5h-14q-49 -10 -77 -68.5t-40 -162.5zM1098 1430l143 2l86 -1233q16 4 32.5 5t29.5 5q14 2 28 6 q-2 0 -2 -34t-2 -75q-2 -47 -2 -106h-285l-2 80t-5 207t-6 286.5t-6 318.5t-5 301t-4 237z" />
</font>
</defs>
</svg>
